<svg width="128" height="120" viewBox="0 0 128 120" fill="none" xmlns="http://www.w3.org/2000/svg">
<g clip-path="url(#clip0_53_185)">
<path opacity="0.998" d="M115.729 43.3037H108.336V47.4206H115.729V43.3037Z" fill="#F2F2F2"/>
<path opacity="0.998" d="M110.327 13.2656H102.934V17.3825H110.327V13.2656Z" fill="#F2F2F2"/>
<path opacity="0.998" d="M115.587 17.9924H108.194V22.1093H115.587V17.9924Z" fill="#F2F2F2"/>
<path opacity="0.998" d="M101.37 13.5706H93.9766V17.6875H101.37V13.5706Z" fill="#F2F2F2"/>
<path opacity="0.998" d="M7.39301 57.7891H0V61.906H7.39301V57.7891Z" fill="#F2F2F2"/>
<path opacity="0.998" d="M116.156 23.0242H108.763V27.1411H116.156V23.0242Z" fill="#F2F2F2"/>
<path opacity="0.998" d="M106.63 18.2974H99.2368V22.4143H106.63V18.2974Z" fill="#F2F2F2"/>
<path opacity="0.998" d="M124.686 54.4346H117.293V58.5515H124.686V54.4346Z" fill="#F2F2F2"/>
<path opacity="0.998" d="M115.729 54.7395H108.336V58.8564H115.729V54.7395Z" fill="#F2F2F2"/>
<path opacity="0.998" d="M7.39301 43.3037H0V47.4206H7.39301V43.3037Z" fill="#F2F2F2"/>
<path opacity="0.998" d="M12.6533 48.0305H5.26025V52.1474H12.6533V48.0305Z" fill="#F2F2F2"/>
<path opacity="0.998" d="M52.6039 0H45.2109V4.1169H52.6039V0Z" fill="#F2F2F2"/>
<path opacity="0.998" d="M110.895 75.9338H103.502V80.0507H110.895V75.9338Z" fill="#F2F2F2"/>
<path opacity="0.998" d="M13.2221 53.0623H5.8291V57.1792H13.2221V53.0623Z" fill="#F2F2F2"/>
<path opacity="0.998" d="M57.8647 4.72681H50.4717V8.84371H57.8647V4.72681Z" fill="#F2F2F2"/>
<path opacity="0.998" d="M30.8515 32.6301H23.4585V36.747H30.8515V32.6301Z" fill="#F2F2F2"/>
<path opacity="0.998" d="M36.1122 37.3569H28.7192V41.4738H36.1122V37.3569Z" fill="#F2F2F2"/>
<path opacity="0.998" d="M50.187 34.7649H42.7939V38.8818H50.187V34.7649Z" fill="#F2F2F2"/>
<path opacity="0.998" d="M36.6806 42.3889H29.2876V46.5058H36.6806V42.3889Z" fill="#F2F2F2"/>
<path opacity="0.998" d="M120.847 75.9338H113.454V80.0507H120.847V75.9338Z" fill="#F2F2F2"/>
<path d="M71.5243 8.77808C74.3738 8.77808 77.1066 9.99208 79.1215 12.153C81.1364 14.3139 82.2683 17.2448 82.2683 20.3008V25.2167H60.7803V20.3008C60.7803 17.2448 61.9122 14.3139 63.9271 12.153C65.942 9.99208 68.6748 8.77808 71.5243 8.77808Z" fill="#CACACA"/>
<path d="M71.5998 35.8535C78.3636 35.8535 83.8466 31.8128 83.8466 26.8284C83.8466 21.8439 78.3636 17.8032 71.5998 17.8032C64.8361 17.8032 59.353 21.8439 59.353 26.8284C59.353 31.8128 64.8361 35.8535 71.5998 35.8535Z" fill="#CACACA"/>
<path d="M63.7492 35.5716C63.7492 35.5716 66.3083 49.9152 63.7492 53.7835C61.19 57.6519 71.5687 59.1828 71.5687 59.1828L82.3113 54.9927L83.8141 44.6775C83.8141 44.6775 77.2741 40.7284 78.629 32.7507L63.7492 35.5716Z" fill="#FFB9B9"/>
<path d="M95.4566 83.9223C95.4566 83.9223 96.1333 87.0648 92.451 87.629C90.2768 87.972 88.0657 87.9437 85.8997 87.5451L85.0879 79.6514H93.6538L95.4566 83.9223Z" fill="#FFB9B9"/>
<path d="M30.435 79.8998C30.435 79.8998 28.8085 86.9885 32.4908 87.6289C36.1731 88.2693 49.6938 88.2739 49.6938 88.2739V79.8876L43.5718 81.2904L37.8251 75.3804L30.435 79.8998Z" fill="#FFB9B9"/>
<path opacity="0.1" d="M64.5396 40.2052L50.1503 43.4683C50.1503 43.4683 44.6652 43.7107 41.1336 51.5267C37.6021 59.3427 29.9375 81.6655 29.9375 81.6655C29.9375 81.6655 36.4775 74.5737 44.1392 82.1488L49.2489 72.2378L48.1215 87.9521H87.7139V80.5371C87.7139 80.5371 95.9784 85.2914 95.3784 87.9506C95.3784 87.9506 102.452 68.406 100.923 59.5242C100.463 56.7784 100.181 54.0017 100.079 51.2141C99.9884 48.9183 99.2378 46.7086 97.9299 44.8885C96.622 43.0684 94.8209 41.727 92.7738 41.0484C92.0288 40.803 91.2099 40.5727 90.3 40.3669C81.8094 38.4334 79.637 40.3669 79.637 40.3669C79.637 40.3669 77.9921 46.1061 78.0219 48.7074C78.0589 52.0512 73.589 54.2683 73.589 54.2683C73.589 54.2683 66.9765 52.5758 66.6765 51.2065C66.3765 49.8373 64.0107 41.8169 64.5396 40.2052Z" fill="black"/>
<path d="M64.5396 39.8837L50.1502 43.1467C50.1502 43.1467 44.6652 43.3892 41.1336 51.2052C37.602 59.0212 29.936 81.347 29.936 81.347C29.936 81.347 36.476 74.2552 44.1377 81.8303L49.2474 71.9193L48.12 87.6291H87.7138V80.2156C87.7138 80.2156 95.9784 84.9699 95.3784 87.6291C95.3784 87.6291 102.452 68.0845 100.923 59.2026C100.463 56.4569 100.181 53.6802 100.079 50.8926C99.9884 48.5967 99.2378 46.3871 97.9299 44.5669C96.622 42.7468 94.8209 41.4054 92.7738 40.7269C92.0288 40.4814 91.2099 40.2512 90.3 40.0453C81.8094 38.1119 79.637 40.0453 79.637 40.0453C79.637 40.0453 77.992 45.7846 78.0219 48.3859C78.0588 51.7297 73.5889 53.9467 73.5889 53.9467C73.5889 53.9467 66.9764 52.2542 66.6765 50.885C66.3765 49.5157 64.0107 41.4954 64.5396 39.8837Z" fill="#6C63FF"/>
<path opacity="0.1" d="M79.243 39.199C78.6385 37.3637 78.503 35.3884 78.8506 33.478L63.9707 36.2973C63.9707 36.2973 64.1854 37.5034 64.4285 39.3103C65.3899 40.3802 66.5442 41.2293 67.8212 41.8058C69.0982 42.3823 70.4711 42.6742 71.8566 42.6638C73.242 42.6534 74.6111 42.3409 75.8804 41.7452C77.1497 41.1496 78.2928 40.2833 79.2401 39.199H79.243Z" fill="black"/>
<path d="M81.7807 30.979C81.797 32.4181 81.5487 33.8465 81.0502 35.1827C80.5517 36.519 79.8127 37.7368 78.8754 38.7667C77.938 39.7966 76.8207 40.6185 75.5872 41.1853C74.3538 41.7521 73.0283 42.0528 71.6864 42.0702C70.3446 42.0876 69.0127 41.8214 67.7667 41.2868C66.5208 40.7522 65.3853 39.9596 64.425 38.9543C62.4855 36.9241 61.3775 34.1507 61.3447 31.2443C61.3461 31.1558 61.3461 31.0674 61.3461 30.979C61.3454 29.3839 61.6694 27.8079 62.2956 26.361C62.9217 24.9141 63.8348 23.6314 64.9712 22.6023C66.1076 21.5732 67.4397 20.8226 68.8747 20.403C70.3096 19.9834 71.8126 19.9048 73.2787 20.1729C75.5423 20.5862 77.6098 21.8057 79.1475 23.6345C80.6853 25.4632 81.6034 27.7944 81.7537 30.2517C81.7717 30.4926 81.7807 30.735 81.7807 30.979Z" fill="#FFB9B9"/>
<path d="M68.0027 20.7064L68.0169 20.6973C66.0578 21.4735 64.3677 22.8753 63.1746 24.7138C61.9816 26.5523 61.3429 28.7389 61.3447 30.9788C61.3447 31.0673 61.3447 31.1557 61.3447 31.2442C61.6624 31.2349 61.9748 31.1544 62.2617 31.0078C64.7526 29.7605 66.2426 25.9456 66.834 23.2848C67.0473 22.3379 67.2478 21.2599 68.0027 20.7064Z" fill="#090814"/>
<path d="M75.824 21.0145C75.0152 20.616 74.1609 20.3335 73.2833 20.1743C74.0031 20.3519 74.6458 20.785 75.1074 21.4033C75.3336 21.7332 75.5213 22.0917 75.6662 22.4706C74.3062 21.8329 72.8333 21.5197 71.3494 21.5526C69.8655 21.5855 68.406 21.9638 67.0718 22.6612C67.713 24.1692 69.702 24.9911 71.0299 25.5415C72.4838 26.1433 73.953 26.6938 75.4373 27.1929L74.1236 26.0493L77.0907 26.5555C77.1227 25.9222 77.0524 25.2877 76.8832 24.68C77.4518 25.171 78.2054 25.3357 78.8224 25.7474C79.9783 26.5296 80.4602 28.0345 81.0901 29.3382C81.2564 29.6828 81.4526 30.0351 81.7526 30.2531C81.6313 28.2834 81.0165 26.3854 79.973 24.7593C78.9295 23.1333 77.4961 21.8395 75.824 21.0145Z" fill="#090814"/>
<path d="M60.1792 28.9236C60.1792 28.9236 70.7 14.8956 82.8715 28.9236L81.8194 25.781C81.8194 25.781 76.1083 16.8366 72.0521 18.767C67.9959 20.6974 64.0122 22.0712 64.0122 22.0712L60.1792 28.9236Z" fill="#CACACA"/>
<path opacity="0.1" d="M51.5378 59.1431C51.5378 59.1431 49.2843 65.5898 52.4392 71.3916C55.594 77.1934 49.6597 79.6117 49.6597 79.6117" fill="black"/>
<path opacity="0.1" d="M88.0552 53.3413C88.0552 53.3413 91.9621 58.6597 89.4073 63.414C86.8524 68.1683 87.0031 79.6117 87.0031 79.6117" fill="black"/>
<path d="M48.0816 84.366H91.5112C92.4679 84.366 93.3853 84.7735 94.0617 85.499C94.7382 86.2244 95.1182 87.2084 95.1182 88.2343H44.4761C44.4761 87.2086 44.8559 86.2249 45.532 85.4995C46.2081 84.7741 47.1252 84.3664 48.0816 84.366Z" fill="#090814"/>
<path d="M52.5003 57.7722H87.0939C87.8221 57.7722 88.5431 57.926 89.2158 58.2249C89.8885 58.5237 90.4998 58.9617 91.0147 59.5139C91.5295 60.0661 91.938 60.7217 92.2166 61.4432C92.4953 62.1646 92.6387 62.9379 92.6387 63.7188V85.2518H46.9556V63.7188C46.9556 62.1417 47.5397 60.6292 48.5796 59.5139C49.6194 58.3987 51.0298 57.7722 52.5003 57.7722Z" fill="#090814"/>
<path d="M69.7588 75.6229C71.253 75.6229 72.4643 74.3238 72.4643 72.7212C72.4643 71.1187 71.253 69.8196 69.7588 69.8196C68.2645 69.8196 67.0532 71.1187 67.0532 72.7212C67.0532 74.3238 68.2645 75.6229 69.7588 75.6229Z" fill="white"/>
<path opacity="0.1" d="M60.7803 22.5971C60.7803 22.5971 71.1191 11.515 82.2698 22.3943" stroke="black" stroke-miterlimit="10"/>
<path d="M84.8816 21.8911H83.8438V28.2022H84.8816V21.8911Z" fill="#CACACA"/>
<path d="M82.459 25.9746C83.4077 25.9746 84.3175 26.3788 84.9884 27.0982C85.6592 27.8177 86.0361 28.7935 86.0361 29.8109V30.058C86.0361 31.0754 85.6592 32.0512 84.9884 32.7707C84.3175 33.4901 83.4077 33.8943 82.459 33.8943V25.9746Z" fill="#6C63FF"/>
<path d="M83.3817 26.4701C83.3817 25.9918 83.0201 25.604 82.5741 25.604C82.1282 25.604 81.7666 25.9918 81.7666 26.4701V33.4002C81.7666 33.8785 82.1282 34.2663 82.5741 34.2663C83.0201 34.2663 83.3817 33.8785 83.3817 33.4002V26.4701Z" fill="#090814"/>
<path d="M58.0622 28.3257H59.1001V22.0146H58.0622V28.3257Z" fill="#CACACA"/>
<path d="M60.4849 34.0178C59.5362 34.0178 58.6263 33.6136 57.9555 32.8942C57.2847 32.1747 56.9078 31.1989 56.9078 30.1815V29.9345C56.9078 29.4307 57.0003 28.9318 57.1801 28.4664C57.3598 28.0009 57.6233 27.578 57.9555 27.2218C58.2877 26.8655 58.682 26.5829 59.116 26.3902C59.55 26.1974 60.0151 26.0981 60.4849 26.0981V34.0178Z" fill="#6C63FF"/>
<path d="M59.5622 33.5224C59.5622 34.0007 59.9237 34.3884 60.3697 34.3884C60.8157 34.3884 61.1772 34.0007 61.1772 33.5224V26.5922C61.1772 26.1139 60.8157 25.7262 60.3697 25.7262C59.9237 25.7262 59.5622 26.1139 59.5622 26.5922V33.5224Z" fill="#090814"/>
<path d="M83.7215 15.1456C82.3154 12.0106 79.253 8.22005 72.6519 7.91662V7.90747H72.5723L70.2335 8.0264V8.0386C63.6765 8.36185 60.6283 12.1387 59.2265 15.263C58.2928 17.381 57.7972 19.6904 57.7734 22.033L58.581 22.0117L59.3885 21.9918C59.4234 19.9062 59.8707 17.8523 60.7008 15.9659C62.4808 12.0442 65.7565 9.95982 70.4354 9.76617L72.504 9.64267C77.1858 9.83479 80.4629 11.9222 82.2415 15.8424C83.073 17.7295 83.5212 19.7845 83.5566 21.8714L84.3641 21.8912L85.1716 21.9126C85.1484 19.5712 84.6537 17.2629 83.7215 15.1456Z" fill="#6C63FF"/>
<path d="M120.614 88.2847H10.4712V120H120.614V88.2847Z" fill="#D6D6E3"/>
<path opacity="0.1" d="M120.614 90.4194H10.4712V93.7739H120.614V90.4194Z" fill="black"/>
<path d="M128 87.8271H3.08252V91.944H128V87.8271Z" fill="#D6D6E3"/>
</g>
<defs>
<clipPath id="clip0_53_185">
<rect width="128" height="120" fill="white"/>
</clipPath>
</defs>
</svg>
