<svg width="128" height="120" viewBox="0 0 128 120" fill="none" xmlns="http://www.w3.org/2000/svg">
<path d="M11.7088 119.762C11.7038 119.82 11.7218 119.877 11.759 119.921C11.7962 119.966 11.8496 119.994 11.9076 120H110.983C111.039 119.99 111.09 119.96 111.126 119.917C111.163 119.873 111.182 119.818 111.182 119.762C111.182 119.705 111.163 119.65 111.126 119.607C111.09 119.563 111.039 119.534 110.983 119.524H11.9076C11.8496 119.529 11.7962 119.558 11.759 119.602C11.7218 119.647 11.7038 119.704 11.7088 119.762Z" fill="#CCCCCC"/>
<path d="M64.9474 96.2654C64.7856 97.2396 64.2811 98.125 63.5239 98.7638C62.7667 99.4026 61.806 99.7533 60.8131 99.7533C59.8202 99.7533 58.8595 99.4026 58.1023 98.7638C57.3451 98.125 56.8406 97.2396 56.6788 96.2654H46.1016V119.061H75.5246V96.2654H64.9474Z" fill="#D6D6E3"/>
<path d="M49.5234 118.976H46.6152V119.487H49.5234V118.976Z" fill="#B6B3C5"/>
<path d="M75.2685 119.062H72.3604V119.572H75.2685V119.062Z" fill="#B6B3C5"/>
<path d="M75.6107 117.255H46.1875V118.049H75.6107V117.255Z" fill="#090814"/>
<path d="M119.987 96.8609H1.64027C1.20537 96.8604 0.788425 96.6883 0.480918 96.3825C0.173411 96.0766 0.000455935 95.662 0 95.2295L0 28.0623C0.000455935 27.6298 0.173411 27.2151 0.480918 26.9093C0.788425 26.6034 1.20537 26.4314 1.64027 26.4309H119.986C120.421 26.4314 120.838 26.6034 121.145 26.9092C121.453 27.215 121.626 27.6296 121.626 28.0621V95.2295C121.626 95.662 121.453 96.0766 121.145 96.3824C120.838 96.6882 120.421 96.8602 119.986 96.8607L119.987 96.8609Z" fill="#090814"/>
<path d="M118.718 29.1528H2.90771V94.1388H118.718V29.1528Z" fill="white"/>
<path d="M71.063 86.3341H51.8286C51.3563 86.3341 50.9034 86.1475 50.5694 85.8154C50.2355 85.4833 50.0479 85.0328 50.0479 84.5632C50.0479 84.0935 50.2355 83.643 50.5694 83.3109C50.9034 82.9788 51.3563 82.7922 51.8286 82.7922H71.063C71.5353 82.7922 71.9882 82.9788 72.3222 83.3109C72.6561 83.643 72.8438 84.0935 72.8438 84.5632C72.8438 85.0328 72.6561 85.4833 72.3222 85.8154C71.9882 86.1475 71.5353 86.3341 71.063 86.3341Z" fill="#4380F5"/>
<path d="M68.2565 67.5972H53.3116C52.3466 67.5972 51.5615 67.1129 51.5615 66.5178C51.5615 65.9227 52.3466 65.4382 53.3116 65.4382H68.2565C69.2214 65.4382 70.0065 65.9226 70.0065 66.5178C70.0065 67.1131 69.2214 67.5972 68.2565 67.5972Z" fill="#D1D1D2"/>
<path d="M61.6181 56.8509L61.5447 56.7009C61.5223 56.6552 59.3232 52.0835 60.5493 47.5761C61.7753 43.0687 65.9922 40.2228 66.0347 40.194L66.174 40.1006L66.2475 40.2506C66.2699 40.2962 68.4689 44.8679 67.2427 49.3754C66.0165 53.8828 61.7998 56.7287 61.7573 56.7574L61.6181 56.8509ZM66.0561 40.5357C65.3179 41.0698 61.9025 43.7158 60.8318 47.6518C59.7603 51.5909 61.3693 55.5858 61.7362 56.4168C62.4744 55.8828 65.8898 53.2368 66.9605 49.3008C68.032 45.3616 66.423 41.3668 66.0561 40.5359V40.5357Z" fill="#3F3D56"/>
<path d="M55.9484 49.3391C57.1744 53.8462 61.3738 56.6375 61.3738 56.6375C61.3738 56.6375 63.5853 52.121 62.3594 47.6143C61.1335 43.1075 56.934 40.3157 56.934 40.3157C56.934 40.3157 54.7223 44.8318 55.9484 49.3391Z" fill="#4380F5"/>
<path d="M61.6846 56.788L61.5172 56.779C61.4662 56.7763 56.3806 56.4645 53.0153 53.2072C49.6501 49.9499 49.2006 44.9021 49.1958 44.8513L49.1821 44.6853L49.3495 44.6943C49.4006 44.697 54.4862 45.0088 57.8514 48.2661C61.2167 51.5234 61.6661 56.5712 61.6704 56.622L61.6846 56.788ZM49.5068 44.9985C49.6164 45.8996 50.2813 50.1543 53.2194 52.9984C56.1574 55.8425 60.4518 56.3887 61.3606 56.4742C61.251 55.5729 60.586 51.3192 57.6478 48.4743C54.7082 45.6281 50.4152 45.0838 49.5068 44.9988V44.9985Z" fill="#3F3D56"/>
<path d="M65.3005 48.3704C61.9363 51.6272 61.5254 56.6338 61.5254 56.6338C61.5254 56.6338 66.569 56.36 69.9331 53.103C73.2973 49.846 73.709 44.8396 73.709 44.8396C73.709 44.8396 68.6647 45.1134 65.3005 48.3704Z" fill="#3F3D56"/>
<path d="M61.4553 39.5721C62.667 39.5721 63.6493 38.5952 63.6493 37.3902C63.6493 36.1851 62.667 35.2083 61.4553 35.2083C60.2435 35.2083 59.2612 36.1851 59.2612 37.3902C59.2612 38.5952 60.2435 39.5721 61.4553 39.5721Z" fill="#4380F5"/>
<path d="M110.103 56.0182C108.778 57.301 108.616 59.2732 108.616 59.2732C108.616 59.2732 110.602 59.1652 111.927 57.8824C113.252 56.5996 113.415 54.6274 113.415 54.6274C113.415 54.6274 111.428 54.7354 110.103 56.0182Z" fill="#3F3D56"/>
<path d="M102.951 94.5156L102.748 94.306C102.78 94.2749 110.806 83.495 112.011 77.7344C113.124 72.414 112.746 64.4325 104.623 52.9134C98.394 44.0786 95.8727 36.3601 97.13 29.9719C98.235 24.3598 123.808 24.0952 123.846 24.071L124.004 24.3156C123.967 24.3392 98.4933 24.5457 97.4154 30.037C96.1782 36.3429 98.6839 43.9833 104.863 52.7463C108.477 57.8711 110.883 62.8896 112.014 67.6626C112.92 71.4875 113.014 74.3857 112.294 77.8121C111.066 83.654 102.984 94.4846 102.951 94.5156Z" fill="#3F3D56"/>
<path d="M108.848 0.0931781C108.848 0.0931781 104.946 -0.999801 103.792 4.30095C102.638 9.6017 103.518 12.2796 103.518 12.2796L112.228 11.2687C112.228 11.2687 114.7 1.70493 108.848 0.0931781Z" fill="#090814"/>
<path d="M103.011 23.0518C103.011 23.0518 97.2883 23.6185 98.3077 25.9163C99.327 28.2141 99.327 28.4167 99.327 28.4167L104.356 37.337L105.987 35.6474C105.987 35.6474 104.151 31.6596 104.151 30.3763C104.151 29.0931 102.248 26.8629 102.248 26.8629L105.578 26.5925L103.011 23.0518Z" fill="#FFB9B9"/>
<path d="M118.693 25.7809L120.596 29.9032C120.596 29.9032 122.023 31.3223 123.586 36.9989C125.149 42.6754 125.488 42.4727 125.488 42.4727L123.111 42.9458C123.111 42.9458 120.46 36.7966 119.576 36.3231C118.693 35.8497 117.606 31.5251 117.606 31.5251L114.48 27.6056L115.431 25.5107L118.693 25.7809Z" fill="#FFB9B9"/>
<path d="M116.382 21.0511L119.304 26.4573C119.304 26.4573 115.635 24.7679 115.092 28.4846L111.762 25.9166C111.762 25.9166 107.141 27.4033 104.355 26.8627C104.355 26.8627 105.17 24.2947 102.248 23.146L108.84 22.3351L108.568 20.916L109.247 19.5645L116.382 21.0511Z" fill="#090814"/>
<path d="M104.762 36.1206C104.762 36.1206 102.927 35.8502 103.403 37.4721L104.355 40.7149C104.355 40.7149 103.132 44.0262 105.034 43.2829C106.937 42.5396 108.16 37.9443 108.16 37.9443C108.16 37.9443 108.976 34.4302 108.16 34.4302C107.345 34.4302 104.762 33.8896 105.034 34.4302C105.307 34.9708 104.762 36.1206 104.762 36.1206Z" fill="#090814"/>
<path d="M125.284 41.5264C125.284 41.5264 122.906 40.9182 122.362 41.8643C121.819 42.8105 121.955 45.919 121.955 45.9866C121.955 46.0542 122.771 46.73 123.042 46.73C123.314 46.73 125.013 49.7709 127.324 48.6898C129.634 47.6086 125.284 41.5264 125.284 41.5264Z" fill="#090814"/>
<path d="M108.16 8.34587C109.624 8.34587 110.81 7.16588 110.81 5.71029C110.81 4.2547 109.624 3.07471 108.16 3.07471C106.696 3.07471 105.51 4.2547 105.51 5.71029C105.51 7.16588 106.696 8.34587 108.16 8.34587Z" fill="#FFB9B9"/>
<path d="M110.335 6.25098C110.335 6.25098 110.878 9.08933 111.354 9.49472C111.83 9.90011 107.752 10.5084 107.752 10.5084C107.752 10.5084 108.364 8.5486 107.616 7.53505C106.869 6.5215 110.335 6.25098 110.335 6.25098Z" fill="#FFB9B9"/>
<path d="M117.47 22.3346C117.007 22.3346 115.829 22.144 114.508 21.8985C113.365 21.6864 112.114 21.4343 111.128 21.2303C110.071 21.0113 109.316 20.8473 109.316 20.8473C109.316 20.8473 109.044 22.5368 108.161 22.334C107.4 22.1596 105.125 14.259 104.51 12.0756C104.465 11.9161 104.474 11.7465 104.535 11.5924C104.596 11.4384 104.706 11.3083 104.848 11.2221L107.972 9.32522L108.772 9.62937C108.772 9.62937 110.125 8.58997 110.91 8.5691C111.694 8.54823 113.053 8.34546 113.053 8.34546C113.053 8.34546 114.616 8.48064 114.888 9.62937C115.16 10.7781 115.295 17.9415 116.315 19.2254C117.335 20.5093 118.761 22.3346 117.47 22.3346Z" fill="#D6D6E3"/>
<path d="M107.957 26.1189C107.957 26.1189 107.957 28.7545 109.723 28.3489C111.49 27.9434 109.859 25.5107 109.859 25.5107L107.957 26.1189Z" fill="#FFB9B9"/>
<path d="M112.849 26.3894C112.849 26.3894 112.237 29.498 110.946 29.025C109.655 28.552 110.946 25.7812 110.946 25.7812L112.849 26.3894Z" fill="#FFB9B9"/>
<path opacity="0.15" d="M115.703 19.0232C115.703 19.0232 115.038 20.6018 114.508 21.8986C113.365 21.6865 112.114 21.4344 111.127 21.2303C111.198 21.0437 111.298 20.8691 111.422 20.7127C111.898 20.1721 111.626 20.0369 111.626 20.0369C111.219 19.226 111.558 18.1447 111.558 18.1447C110.743 15.9822 111.965 13.2791 111.965 13.2791L115.703 19.0232Z" fill="black"/>
<path d="M112.169 13.2788C112.169 13.2788 110.946 15.982 111.762 18.1445C111.762 18.1445 111.422 19.2258 111.83 20.0367C111.83 20.0367 112.102 20.1719 111.626 20.7124C111.151 21.253 110.743 23.1453 111.083 23.5506C111.423 23.956 110.607 24.6995 110.811 25.1049C111.015 25.5103 110.471 26.051 110.471 26.051C110.471 26.051 112.51 26.456 112.85 27.0648C112.85 27.0648 113.257 26.5918 113.053 26.051C112.85 25.5103 112.985 25.3077 113.189 24.9697C113.393 24.6318 114.004 23.8884 114.072 23.5506C114.14 23.2128 115.907 19.023 115.907 19.023L115.078 11.3877L112.169 13.2788Z" fill="#D6D6E3"/>
<path d="M105.102 11.3867L104.975 11.4096C104.798 11.4415 104.638 11.5346 104.523 11.6723C104.409 11.8101 104.346 11.9837 104.348 12.1626C104.353 12.8412 104.391 14.0452 104.558 15.7116C104.83 18.4148 105.782 22.4695 105.985 22.8756C106.309 23.5931 106.672 24.2924 107.073 24.9705C107.684 25.9842 107.82 25.6462 107.684 26.1194C107.643 26.2496 107.64 26.389 107.676 26.5208C107.712 26.6526 107.786 26.7713 107.888 26.8627C107.888 26.8627 109.111 25.5112 110.334 26.2546C110.422 26.0635 110.468 25.8563 110.47 25.6464C110.47 25.3084 110.674 24.9706 110.334 24.7679C109.995 24.5651 110.538 23.6866 109.994 23.2136C109.451 22.7406 109.383 22.8087 109.451 22.3351C109.482 22.0134 109.436 21.6889 109.315 21.3889L105.102 11.3867Z" fill="#D6D6E3"/>
<path d="M109.151 2.32471C109.151 2.32471 108.052 5.22146 105.36 6.42315L104.92 3.85469L109.151 2.32471Z" fill="#090814"/>
<path d="M123.866 21.3613C123.411 23.0347 121.852 24.0711 121.852 24.0711C121.852 24.0711 121.031 22.3943 121.486 20.7209C121.941 19.0474 123.5 18.011 123.5 18.011C123.5 18.011 124.322 19.6878 123.866 21.3613Z" fill="#4380F5"/>
<path d="M69.4541 71.0235H53.4367C52.4031 71.0235 51.561 70.5392 51.561 69.9441C51.561 69.349 52.4025 68.8645 53.4367 68.8645H69.4541C70.4877 68.8645 71.3298 69.3489 71.3298 69.9441C71.3298 70.5393 70.4877 71.0235 69.4541 71.0235Z" fill="#D1D1D2"/>
</svg>
