<svg width="28" height="28" viewBox="0 0 28 28" fill="none" xmlns="http://www.w3.org/2000/svg">
<g clip-path="url(#clip0_104_320)">
<path d="M10.5002 22.1668C4.66683 23.9168 4.66683 19.2501 2.3335 18.6668M18.6668 25.6668V21.1518C18.7106 20.5954 18.6354 20.0362 18.4463 19.5112C18.2573 18.9862 17.9586 18.5074 17.5702 18.1068C21.2335 17.6984 25.0835 16.3101 25.0835 9.94009C25.0832 8.31122 24.4566 6.74482 23.3335 5.56509C23.8653 4.14001 23.8277 2.56483 23.2285 1.16676C23.2285 1.16676 21.8518 0.758423 18.6668 2.89342C15.9928 2.16872 13.1742 2.16872 10.5002 2.89342C7.31516 0.758423 5.9385 1.16676 5.9385 1.16676C5.33927 2.56483 5.30166 4.14001 5.8335 5.56509C4.70198 6.75357 4.07477 8.33413 4.0835 9.97509C4.0835 16.2984 7.9335 17.6868 11.5968 18.1418C11.213 18.5384 10.917 19.0114 10.728 19.53C10.5391 20.0486 10.4614 20.6012 10.5002 21.1518V25.6668" stroke="#D9D9D9" stroke-width="2.5" stroke-linecap="round" stroke-linejoin="round"/>
</g>
<defs>
<clipPath id="clip0_104_320">
<rect width="28" height="28" fill="white"/>
</clipPath>
</defs>
</svg>
