<svg width="28" height="28" viewBox="0 0 28 28" fill="none" xmlns="http://www.w3.org/2000/svg">
<path d="M20.4168 7.58325H20.4285M8.16683 2.33325H19.8335C23.0552 2.33325 25.6668 4.94492 25.6668 8.16659V19.8333C25.6668 23.0549 23.0552 25.6666 19.8335 25.6666H8.16683C4.94517 25.6666 2.3335 23.0549 2.3335 19.8333V8.16659C2.3335 4.94492 4.94517 2.33325 8.16683 2.33325ZM18.6668 13.2649C18.8108 14.2359 18.645 15.2275 18.1929 16.0988C17.7408 16.97 17.0255 17.6766 16.1487 18.1179C15.272 18.5592 14.2784 18.7128 13.3092 18.5568C12.3401 18.4009 11.4449 17.9433 10.7508 17.2493C10.0567 16.5552 9.59918 15.6599 9.44324 14.6908C9.2873 13.7217 9.44091 12.7281 9.88221 11.8514C10.3235 10.9746 11.03 10.2593 11.9013 9.8072C12.7726 9.35512 13.7642 9.18927 14.7352 9.33325C15.7256 9.48012 16.6425 9.94163 17.3505 10.6496C18.0585 11.3576 18.52 12.2745 18.6668 13.2649Z" stroke="#D9D9D9" stroke-width="2.5" stroke-linecap="round" stroke-linejoin="round"/>
</svg>
