<svg width="28" height="28" viewBox="0 0 28 28" fill="none" xmlns="http://www.w3.org/2000/svg">
<path d="M18.6668 9.33325C20.5233 9.33325 22.3038 10.0707 23.6166 11.3835C24.9293 12.6963 25.6668 14.4767 25.6668 16.3333V24.4999H21.0002V16.3333C21.0002 15.7144 20.7543 15.1209 20.3167 14.6833C19.8792 14.2458 19.2857 13.9999 18.6668 13.9999C18.048 13.9999 17.4545 14.2458 17.0169 14.6833C16.5793 15.1209 16.3335 15.7144 16.3335 16.3333V24.4999H11.6668V16.3333C11.6668 14.4767 12.4043 12.6963 13.7171 11.3835C15.0298 10.0707 16.8103 9.33325 18.6668 9.33325Z" stroke="#D9D9D9" stroke-width="2.5" stroke-linecap="round" stroke-linejoin="round"/>
<path d="M7.00016 10.4999H2.3335V24.4999H7.00016V10.4999Z" stroke="#D9D9D9" stroke-width="2.5" stroke-linecap="round" stroke-linejoin="round"/>
<path d="M4.66683 6.99992C5.95549 6.99992 7.00016 5.95525 7.00016 4.66659C7.00016 3.37792 5.95549 2.33325 4.66683 2.33325C3.37816 2.33325 2.3335 3.37792 2.3335 4.66659C2.3335 5.95525 3.37816 6.99992 4.66683 6.99992Z" stroke="#D9D9D9" stroke-width="2.5" stroke-linecap="round" stroke-linejoin="round"/>
</svg>
