<svg width="53" height="44" viewBox="0 0 53 44" fill="none" xmlns="http://www.w3.org/2000/svg">
<path d="M6.354 9.8H19.278C19.746 9.8 20.142 9.752 20.466 9.656C20.79 9.548 21.078 9.446 21.33 9.35C21.594 9.254 21.852 9.206 22.104 9.206C22.536 9.206 22.86 9.314 23.076 9.53C23.292 9.734 23.466 10.094 23.598 10.61L24.768 16.73C24.852 17.102 24.828 17.402 24.696 17.63C24.564 17.858 24.342 18.002 24.03 18.062C23.742 18.122 23.484 18.098 23.256 17.99C23.04 17.882 22.854 17.672 22.698 17.36C21.99 15.86 21.378 14.72 20.862 13.94C20.358 13.148 19.866 12.602 19.386 12.302C18.918 12.002 18.39 11.852 17.802 11.852H16.272V31.832C16.272 32.096 16.344 32.312 16.488 32.48C16.644 32.636 16.866 32.762 17.154 32.858L18.054 33.092C18.57 33.272 18.828 33.608 18.828 34.1C18.828 34.7 18.438 35 17.658 35H7.992C7.584 35 7.284 34.916 7.092 34.748C6.912 34.58 6.822 34.364 6.822 34.1C6.822 33.608 7.074 33.272 7.578 33.092L8.496 32.858C8.784 32.762 9 32.636 9.144 32.48C9.3 32.312 9.378 32.096 9.378 31.832V11.852H7.848C7.272 11.852 6.744 12.008 6.264 12.32C5.796 12.62 5.304 13.166 4.788 13.958C4.272 14.738 3.66 15.872 2.952 17.36C2.796 17.672 2.604 17.882 2.376 17.99C2.16 18.098 1.908 18.122 1.62 18.062C1.308 18.002 1.086 17.858 0.954 17.63C0.834 17.402 0.804 17.102 0.864 16.73L2.034 10.61C2.166 10.094 2.34 9.734 2.556 9.53C2.784 9.314 3.114 9.206 3.546 9.206C3.798 9.206 4.05 9.254 4.302 9.35C4.554 9.446 4.842 9.548 5.166 9.656C5.49 9.752 5.886 9.8 6.354 9.8Z" fill="#A8DADC" fill-opacity="0.266667"/>
<path d="M51.65 28.952C51.65 30.752 50.876 32.21 49.328 33.326C47.78 34.442 45.44 35 42.308 35H28.826C28.43 35 28.136 34.916 27.944 34.748C27.752 34.58 27.656 34.364 27.656 34.1C27.656 33.608 27.914 33.272 28.43 33.092L29.33 32.858C29.63 32.762 29.852 32.63 29.996 32.462C30.152 32.294 30.23 32.066 30.23 31.778V12.968C30.23 12.704 30.158 12.494 30.014 12.338C29.87 12.17 29.642 12.038 29.33 11.942L28.43 11.708C27.914 11.528 27.656 11.192 27.656 10.7C27.656 10.424 27.752 10.208 27.944 10.052C28.136 9.884 28.43 9.8 28.826 9.8H39.23C41.534 9.8 43.502 10.112 45.134 10.736C46.778 11.348 48.032 12.206 48.896 13.31C49.772 14.402 50.21 15.686 50.21 17.162C50.21 18.362 49.856 19.43 49.148 20.366C48.452 21.302 47.432 22.04 46.088 22.58C44.744 23.108 43.106 23.372 41.174 23.372L42.092 22.796C44 22.796 45.668 23.06 47.096 23.588C48.536 24.104 49.652 24.824 50.444 25.748C51.248 26.672 51.65 27.74 51.65 28.952ZM39.86 24.146H35.36V22.58H39.302C40.274 22.58 41.09 22.394 41.75 22.022C42.422 21.65 42.926 21.092 43.262 20.348C43.598 19.592 43.766 18.656 43.766 17.54C43.766 16.328 43.538 15.278 43.082 14.39C42.638 13.502 41.996 12.812 41.156 12.32C40.328 11.828 39.332 11.582 38.168 11.582H37.088V31.418C37.088 32.03 37.268 32.486 37.628 32.786C37.988 33.074 38.51 33.218 39.194 33.218H40.706C41.582 33.218 42.326 33.038 42.938 32.678C43.562 32.318 44.036 31.808 44.36 31.148C44.684 30.476 44.846 29.678 44.846 28.754C44.846 27.326 44.414 26.204 43.55 25.388C42.686 24.56 41.456 24.146 39.86 24.146Z" fill="#4380F5"/>
</svg>
