<svg width="220" height="141" viewBox="0 0 220 141" fill="none" xmlns="http://www.w3.org/2000/svg">
<g clip-path="url(#clip0_104_349)">
<g clip-path="url(#clip1_104_349)">
<path d="M61.4619 91.6698L47.8872 90.8474L48.2439 81.8452L57.8207 82.6209C57.2689 84.7796 57.4703 88.7866 61.4619 91.6698Z" fill="#FFB8B8"/>
<path d="M108.375 23.9702C112.037 23.9702 115.005 21.0453 115.005 17.4372C115.005 13.829 112.037 10.9041 108.375 10.9041C104.714 10.9041 101.746 13.829 101.746 17.4372C101.746 21.0453 104.714 23.9702 108.375 23.9702Z" fill="#FD6584"/>
<path d="M123.213 14.3437C123.026 13.7395 122.664 13.2025 122.171 12.7986C121.678 12.3948 121.076 12.1417 120.44 12.0706C120.425 12.0694 120.41 12.0694 120.395 12.0706C120.377 12.0651 120.359 12.061 120.34 12.0584C118.12 11.7746 115.652 12.4646 113.991 13.9669C113.375 14.5158 112.881 15.1859 112.544 15.9341C112.236 15.5196 111.83 15.1853 111.361 14.9602C110.893 14.7351 110.376 14.626 109.855 14.6422C109.183 14.686 108.541 14.9329 108.016 15.3493C107.492 15.7657 107.111 16.3313 106.925 16.969C106.904 17.047 106.91 17.1293 106.941 17.2038C106.972 17.2783 107.026 17.341 107.096 17.3826C107.296 17.5509 107.533 17.6699 107.789 17.73C108.338 17.845 108.891 17.9502 109.445 18.0456C110.528 18.2316 111.616 18.3825 112.71 18.4983C113.433 18.5741 114.157 18.6345 114.883 18.6793C116.382 18.7723 117.89 18.7943 119.392 18.7478C120.137 18.7234 120.852 18.6989 121.532 18.3759C122.028 18.1357 122.451 17.7722 122.761 17.3214C123.053 16.8877 123.244 16.3964 123.322 15.8819C123.4 15.3675 123.363 14.8424 123.213 14.3437Z" fill="#F2F2F2"/>
<path d="M109.574 23.8615C109.561 23.5877 109.514 23.3165 109.435 23.054C109.247 22.45 108.884 21.9131 108.391 21.5093C107.898 21.1055 107.296 20.8524 106.659 20.781C106.645 20.7798 106.63 20.7798 106.616 20.781C106.598 20.7757 106.579 20.7717 106.559 20.7688C105.331 20.6205 104.084 20.7467 102.912 21.1382C101.109 21.7328 99.5276 22.9317 98.7653 24.6444C98.457 24.2297 98.0508 23.8953 97.5818 23.6702C97.1128 23.4451 96.5952 23.336 96.0737 23.3525C95.4018 23.3963 94.7599 23.6433 94.2356 24.0597C93.7113 24.4761 93.33 25.0417 93.1438 25.6794C93.1245 25.7573 93.1307 25.8393 93.1615 25.9135C93.1922 25.9878 93.246 26.0506 93.3152 26.0929C93.5152 26.2607 93.7525 26.3798 94.0079 26.4404C94.5591 26.5553 95.1104 26.6606 95.6665 26.756C96.7491 26.9419 97.8367 27.0928 98.9292 27.2086C101.149 27.4434 103.382 27.5268 105.613 27.4582C106.356 27.4337 107.073 27.4093 107.754 27.0863C108.249 26.8459 108.671 26.4825 108.98 26.0317C109.415 25.3926 109.624 24.6296 109.574 23.8615Z" fill="#F2F2F2"/>
<path d="M182.863 116.755H157.195C157.055 114.73 157.067 112.697 157.232 110.673C158.258 98.1715 165.16 86.2621 175.573 79.0508C174.243 83.7216 174.928 88.3654 176.313 93.0272C176.119 93.0908 175.925 93.1456 175.749 93.2183C174.343 93.7315 173.053 94.511 171.952 95.5128C171.647 95.7952 171.323 96.2048 171.48 96.5963C171.618 96.9241 172.034 97.0333 172.394 97.1062C173.264 97.2701 174.133 97.434 174.991 97.5887C175.684 97.7252 176.377 97.8527 177.07 97.9892C177.393 98.0438 177.715 98.1076 178.04 98.1712C178.086 98.2806 178.115 98.3807 178.16 98.4808C179.786 102.897 181.56 107.349 182.392 111.874C182.598 113.01 182.74 114.156 182.817 115.307C182.846 115.79 182.863 116.273 182.863 116.755Z" fill="#F2F2F2"/>
<path d="M65.8187 100.184C61.4573 102.797 58.6853 106.839 56.4216 111.365C54.4516 111.808 52.633 112.749 51.1456 114.097C50.8315 114.379 50.5079 114.789 50.6738 115.18C50.8123 115.508 51.2282 115.617 51.5885 115.69C52.4479 115.854 53.3266 116.018 54.185 116.173C54.1018 116.364 54.0186 116.564 53.9367 116.755H25.1079C26.4166 115.016 27.8658 113.384 29.4414 111.875C29.7833 111.538 30.1344 111.219 30.4947 110.891C34.1696 107.619 38.3893 104.994 42.9687 103.134C50.1827 100.162 58.0715 99.1433 65.8189 100.184H65.8187Z" fill="#F2F2F2"/>
<path d="M125.472 106.136L148.407 108.142L148.653 108.164V11.7272L148.407 11.5584C143.627 8.26378 138.456 5.55717 133.01 3.49878L131.838 19.4272L131.731 20.8855L130.572 36.6818L130.214 41.541L125.514 105.573L125.472 106.136Z" fill="#F2F2F2"/>
<path d="M68.7533 9.9313C68.5895 10.0341 68.4256 10.1368 68.2617 10.2445V108.164L68.7533 108.12L91.4402 106.136L91.398 105.573L86.6978 41.541L86.3402 36.6817L85.1807 20.8855L85.0739 19.4272L83.8448 2.72314C78.5446 4.53359 73.4792 6.95298 68.7533 9.9313Z" fill="#F2F2F2"/>
<path d="M68.2616 10.2446C67.9314 10.455 67.6011 10.6703 67.2759 10.8881V109.5C67.2759 111.964 68.7582 114.029 70.7396 114.555C71.0634 114.641 71.3974 114.685 71.7328 114.685H145.427C145.762 114.685 146.095 114.641 146.418 114.555C147.155 114.354 147.822 113.96 148.35 113.415C149.356 112.355 149.906 110.951 149.884 109.5V12.6033C149.477 12.3072 149.067 12.0136 148.653 11.7273L148.407 11.5585V109.5C148.407 109.817 148.369 110.134 148.293 110.442C147.943 111.898 146.788 112.965 145.427 112.965H71.7328C70.0891 112.965 68.7532 111.411 68.7532 109.5V9.9314C68.5894 10.0342 68.4255 10.1369 68.2616 10.2446Z" fill="#F2F2F2"/>
<path d="M149.146 19.4282H68.0142V20.8862H149.146V19.4282Z" fill="#F2F2F2"/>
<path d="M124.297 0.829353C123.806 0.709462 123.314 0.59691 122.817 0.491699V40.0827H124.297V0.829353Z" fill="#F2F2F2"/>
<path d="M94.3426 0C93.8485 0.0905302 93.3544 0.183508 92.8628 0.283825V40.0828H94.3426V0Z" fill="#F2F2F2"/>
<path d="M52.1074 112.133C52.1071 112.969 52.2698 113.798 52.5866 114.574C52.7083 114.875 52.8536 115.167 53.0212 115.445C53.2376 115.809 53.4886 116.152 53.771 116.468C54.3948 117.169 55.1631 117.73 56.0246 118.114C56.8862 118.499 57.821 118.697 58.7667 118.697H155.928C157.694 118.697 159.388 118.006 160.637 116.775C161.886 115.545 162.587 113.875 162.587 112.135C162.587 110.395 161.886 108.725 160.637 107.495C159.388 106.264 157.694 105.573 155.928 105.573H58.7667C57.0015 105.574 55.3091 106.266 54.0607 107.496C52.8122 108.726 52.1098 110.393 52.1074 112.133Z" fill="#F2F2F2"/>
<path d="M68.014 41.5415L148.652 41.5415V36.6815L68.014 36.6815V41.5415Z" fill="#F2F2F2"/>
<path d="M111.786 37.8965H104.881C104.881 37.1875 105.167 36.5076 105.676 36.0063C106.184 35.505 106.874 35.2234 107.594 35.2234H109.073C109.43 35.2234 109.782 35.2925 110.111 35.4268C110.441 35.5611 110.74 35.758 110.992 36.0062C111.243 36.2545 111.443 36.5492 111.58 36.8735C111.716 37.1978 111.786 37.5454 111.786 37.8965Z" fill="#F2F2F2"/>
<path d="M0 115.881C2.20894 118.403 4.59419 120.77 7.13829 122.964H211.892C214.436 120.77 216.821 118.403 219.03 115.881H0Z" fill="#F2F2F2"/>
<path d="M98.7251 92.194V117.288H116.565V92.194C116.566 92.0136 116.507 91.8377 116.398 91.6924C116.29 91.5471 116.137 91.4399 115.962 91.3866C115.879 91.3598 115.793 91.3465 115.706 91.3475H99.5867C99.4737 91.3472 99.3617 91.369 99.2573 91.4114C99.1528 91.4538 99.0578 91.5161 98.9778 91.5948C98.8978 91.6734 98.8343 91.7668 98.7909 91.8696C98.7476 91.9724 98.7252 92.0827 98.7251 92.194ZM105.687 100.816C105.687 100.319 105.888 99.8414 106.245 99.4894C106.602 99.1375 107.087 98.9398 107.592 98.9398C108.097 98.9398 108.581 99.1375 108.938 99.4894C109.296 99.8414 109.496 100.319 109.496 100.816V103.728C109.496 104.226 109.296 104.703 108.938 105.055C108.581 105.407 108.097 105.605 107.592 105.605C107.087 105.605 106.602 105.407 106.245 105.055C105.888 104.703 105.687 104.226 105.687 103.728V100.816Z" fill="#E6E6E6"/>
<path d="M98.6709 116.485V118.905C98.6713 119.031 98.7218 119.151 98.8115 119.24C98.9013 119.328 99.0229 119.379 99.1501 119.38H116.141C116.268 119.379 116.39 119.329 116.48 119.24C116.57 119.151 116.62 119.031 116.62 118.905V116.485H98.6709Z" fill="#3F3D56"/>
<path d="M70.6602 54.3867V100.204C70.6606 100.788 70.8962 101.347 71.3152 101.76C71.7342 102.173 72.3023 102.405 72.8948 102.406H141.797C142.39 102.405 142.958 102.173 143.377 101.76C143.796 101.347 144.031 100.788 144.032 100.204V54.3867C144.03 53.8033 143.794 53.2443 143.376 52.832C142.957 52.4197 142.389 52.1878 141.797 52.187H72.8948C72.3028 52.1877 71.7352 52.4196 71.3164 52.8319C70.8975 53.2442 70.6615 53.8033 70.6602 54.3867Z" fill="#3F3D56"/>
<path d="M72.2769 54.9567V99.6394C72.2774 99.9514 72.4034 100.25 72.6272 100.471C72.8511 100.692 73.1546 100.816 73.4712 100.816H141.224C141.541 100.816 141.844 100.692 142.068 100.471C142.292 100.25 142.418 99.9514 142.418 99.6394V54.9567C142.418 54.6443 142.292 54.3447 142.069 54.1236C141.845 53.9025 141.541 53.778 141.224 53.7773H73.4712C73.1542 53.7781 72.8505 53.9026 72.6266 54.1237C72.4027 54.3448 72.2769 54.6443 72.2769 54.9567Z" fill="#F2F2F2"/>
<path d="M86.0921 119.949C86.161 120.034 86.2487 120.103 86.3484 120.15C86.4482 120.197 86.5575 120.221 86.6681 120.221H126.977C127.087 120.22 127.196 120.196 127.295 120.149C127.395 120.103 127.482 120.034 127.552 119.95C127.621 119.866 127.671 119.767 127.697 119.662C127.723 119.556 127.724 119.446 127.702 119.34L127.076 116.411C127.05 116.292 126.994 116.18 126.913 116.088C126.833 115.995 126.73 115.924 126.614 115.88C126.53 115.848 126.441 115.831 126.351 115.831H87.2913C87.2013 115.831 87.112 115.848 87.0281 115.88C86.9123 115.923 86.8094 115.995 86.7287 116.088C86.6481 116.18 86.5922 116.291 86.5663 116.411L85.9406 119.34C85.9183 119.446 85.9204 119.556 85.9466 119.661C85.9728 119.767 86.0225 119.865 86.0921 119.949Z" fill="#2F2E41"/>
<path d="M124.944 117.094H125.943C126.01 117.094 126.064 117.04 126.064 116.974V116.479C126.064 116.413 126.01 116.36 125.943 116.36H124.944C124.877 116.36 124.823 116.413 124.823 116.479V116.974C124.823 117.04 124.877 117.094 124.944 117.094Z" fill="#3F3D56"/>
<path d="M122.461 117.094H123.46C123.527 117.094 123.582 117.04 123.582 116.974V116.479C123.582 116.413 123.527 116.36 123.46 116.36H122.461C122.394 116.36 122.34 116.413 122.34 116.479V116.974C122.34 117.04 122.394 117.094 122.461 117.094Z" fill="#3F3D56"/>
<path d="M119.978 117.094H120.977C121.044 117.094 121.099 117.04 121.099 116.974V116.479C121.099 116.413 121.044 116.36 120.977 116.36H119.978C119.911 116.36 119.857 116.413 119.857 116.479V116.974C119.857 117.04 119.911 117.094 119.978 117.094Z" fill="#3F3D56"/>
<path d="M117.495 117.094H118.495C118.561 117.094 118.616 117.04 118.616 116.974V116.479C118.616 116.413 118.561 116.36 118.495 116.36H117.495C117.428 116.36 117.374 116.413 117.374 116.479V116.974C117.374 117.04 117.428 117.094 117.495 117.094Z" fill="#3F3D56"/>
<path d="M115.012 117.094H116.012C116.079 117.094 116.133 117.04 116.133 116.974V116.479C116.133 116.413 116.079 116.36 116.012 116.36H115.012C114.946 116.36 114.891 116.413 114.891 116.479V116.974C114.891 117.04 114.946 117.094 115.012 117.094Z" fill="#3F3D56"/>
<path d="M112.53 117.094H113.529C113.596 117.094 113.65 117.04 113.65 116.974V116.479C113.65 116.413 113.596 116.36 113.529 116.36H112.53C112.463 116.36 112.408 116.413 112.408 116.479V116.974C112.408 117.04 112.463 117.094 112.53 117.094Z" fill="#3F3D56"/>
<path d="M110.046 117.094H111.045C111.112 117.094 111.167 117.04 111.167 116.974V116.479C111.167 116.413 111.112 116.36 111.045 116.36H110.046C109.979 116.36 109.925 116.413 109.925 116.479V116.974C109.925 117.04 109.979 117.094 110.046 117.094Z" fill="#3F3D56"/>
<path d="M107.563 117.094H108.562C108.629 117.094 108.684 117.04 108.684 116.974V116.479C108.684 116.413 108.629 116.36 108.562 116.36H107.563C107.496 116.36 107.442 116.413 107.442 116.479V116.974C107.442 117.04 107.496 117.094 107.563 117.094Z" fill="#3F3D56"/>
<path d="M105.08 117.094H106.08C106.146 117.094 106.201 117.04 106.201 116.974V116.479C106.201 116.413 106.146 116.36 106.08 116.36H105.08C105.013 116.36 104.959 116.413 104.959 116.479V116.974C104.959 117.04 105.013 117.094 105.08 117.094Z" fill="#3F3D56"/>
<path d="M102.597 117.094H103.597C103.664 117.094 103.718 117.04 103.718 116.974V116.479C103.718 116.413 103.664 116.36 103.597 116.36H102.597C102.531 116.36 102.476 116.413 102.476 116.479V116.974C102.476 117.04 102.531 117.094 102.597 117.094Z" fill="#3F3D56"/>
<path d="M100.115 117.094H101.114C101.181 117.094 101.235 117.04 101.235 116.974V116.479C101.235 116.413 101.181 116.36 101.114 116.36H100.115C100.048 116.36 99.9934 116.413 99.9934 116.479V116.974C99.9934 117.04 100.048 117.094 100.115 117.094Z" fill="#3F3D56"/>
<path d="M97.6316 117.094H98.6308C98.6977 117.094 98.752 117.04 98.752 116.974V116.479C98.752 116.413 98.6977 116.36 98.6308 116.36H97.6316C97.5647 116.36 97.5105 116.413 97.5105 116.479V116.974C97.5105 117.04 97.5647 117.094 97.6316 117.094Z" fill="#3F3D56"/>
<path d="M95.1487 117.094H96.1479C96.2148 117.094 96.269 117.04 96.269 116.974V116.479C96.269 116.413 96.2148 116.36 96.1479 116.36H95.1487C95.0818 116.36 95.0276 116.413 95.0276 116.479V116.974C95.0276 117.04 95.0818 117.094 95.1487 117.094Z" fill="#3F3D56"/>
<path d="M92.6658 117.094H93.665C93.7319 117.094 93.7861 117.04 93.7861 116.974V116.479C93.7861 116.413 93.7319 116.36 93.665 116.36H92.6658C92.5989 116.36 92.5446 116.413 92.5446 116.479V116.974C92.5446 117.04 92.5989 117.094 92.6658 117.094Z" fill="#3F3D56"/>
<path d="M90.1824 117.094H91.1816C91.2485 117.094 91.3027 117.04 91.3027 116.974V116.479C91.3027 116.413 91.2485 116.36 91.1816 116.36H90.1824C90.1155 116.36 90.0613 116.413 90.0613 116.479V116.974C90.0613 117.04 90.1155 117.094 90.1824 117.094Z" fill="#3F3D56"/>
<path d="M87.6995 117.094H88.6987C88.7656 117.094 88.8198 117.04 88.8198 116.974V116.479C88.8198 116.413 88.7656 116.36 88.6987 116.36H87.6995C87.6326 116.36 87.5783 116.413 87.5783 116.479V116.974C87.5783 117.04 87.6326 117.094 87.6995 117.094Z" fill="#3F3D56"/>
<path d="M124.973 118.317H125.973C126.04 118.317 126.094 118.264 126.094 118.198V117.703C126.094 117.637 126.04 117.583 125.973 117.583H124.973C124.907 117.583 124.852 117.637 124.852 117.703V118.198C124.852 118.264 124.907 118.317 124.973 118.317Z" fill="#3F3D56"/>
<path d="M122.491 118.317H123.49C123.557 118.317 123.611 118.264 123.611 118.198V117.703C123.611 117.637 123.557 117.583 123.49 117.583H122.491C122.424 117.583 122.369 117.637 122.369 117.703V118.198C122.369 118.264 122.424 118.317 122.491 118.317Z" fill="#3F3D56"/>
<path d="M120.008 118.317H121.007C121.074 118.317 121.128 118.264 121.128 118.198V117.703C121.128 117.637 121.074 117.583 121.007 117.583H120.008C119.941 117.583 119.886 117.637 119.886 117.703V118.198C119.886 118.264 119.941 118.317 120.008 118.317Z" fill="#3F3D56"/>
<path d="M117.525 118.317H118.524C118.591 118.317 118.645 118.264 118.645 118.198V117.703C118.645 117.637 118.591 117.583 118.524 117.583H117.525C117.458 117.583 117.404 117.637 117.404 117.703V118.198C117.404 118.264 117.458 118.317 117.525 118.317Z" fill="#3F3D56"/>
<path d="M115.042 118.317H116.041C116.108 118.317 116.162 118.264 116.162 118.198V117.703C116.162 117.637 116.108 117.583 116.041 117.583H115.042C114.975 117.583 114.921 117.637 114.921 117.703V118.198C114.921 118.264 114.975 118.317 115.042 118.317Z" fill="#3F3D56"/>
<path d="M112.559 118.317H113.558C113.625 118.317 113.679 118.264 113.679 118.198V117.703C113.679 117.637 113.625 117.583 113.558 117.583H112.559C112.492 117.583 112.438 117.637 112.438 117.703V118.198C112.438 118.264 112.492 118.317 112.559 118.317Z" fill="#3F3D56"/>
<path d="M110.075 118.317H111.075C111.142 118.317 111.196 118.264 111.196 118.198V117.703C111.196 117.637 111.142 117.583 111.075 117.583H110.075C110.009 117.583 109.954 117.637 109.954 117.703V118.198C109.954 118.264 110.009 118.317 110.075 118.317Z" fill="#3F3D56"/>
<path d="M107.593 118.317H108.592C108.659 118.317 108.713 118.264 108.713 118.198V117.703C108.713 117.637 108.659 117.583 108.592 117.583H107.593C107.526 117.583 107.471 117.637 107.471 117.703V118.198C107.471 118.264 107.526 118.317 107.593 118.317Z" fill="#3F3D56"/>
<path d="M105.11 118.317H106.109C106.176 118.317 106.23 118.264 106.23 118.198V117.703C106.23 117.637 106.176 117.583 106.109 117.583H105.11C105.043 117.583 104.988 117.637 104.988 117.703V118.198C104.988 118.264 105.043 118.317 105.11 118.317Z" fill="#3F3D56"/>
<path d="M102.627 118.317H103.626C103.693 118.317 103.747 118.264 103.747 118.198V117.703C103.747 117.637 103.693 117.583 103.626 117.583H102.627C102.56 117.583 102.506 117.637 102.506 117.703V118.198C102.506 118.264 102.56 118.317 102.627 118.317Z" fill="#3F3D56"/>
<path d="M100.144 118.317H101.143C101.21 118.317 101.264 118.264 101.264 118.198V117.703C101.264 117.637 101.21 117.583 101.143 117.583H100.144C100.077 117.583 100.023 117.637 100.023 117.703V118.198C100.023 118.264 100.077 118.317 100.144 118.317Z" fill="#3F3D56"/>
<path d="M97.6609 118.317H98.6601C98.727 118.317 98.7812 118.264 98.7812 118.198V117.703C98.7812 117.637 98.727 117.583 98.6601 117.583H97.6609C97.594 117.583 97.5398 117.637 97.5398 117.703V118.198C97.5398 118.264 97.594 118.317 97.6609 118.317Z" fill="#3F3D56"/>
<path d="M95.178 118.317H96.1772C96.2441 118.317 96.2983 118.264 96.2983 118.198V117.703C96.2983 117.637 96.2441 117.583 96.1772 117.583H95.178C95.1111 117.583 95.0569 117.637 95.0569 117.703V118.198C95.0569 118.264 95.1111 118.317 95.178 118.317Z" fill="#3F3D56"/>
<path d="M92.6951 118.317H93.6943C93.7612 118.317 93.8154 118.264 93.8154 118.198V117.703C93.8154 117.637 93.7612 117.583 93.6943 117.583H92.6951C92.6282 117.583 92.5739 117.637 92.5739 117.703V118.198C92.5739 118.264 92.6282 118.317 92.6951 118.317Z" fill="#3F3D56"/>
<path d="M90.2117 118.317H91.2109C91.2778 118.317 91.332 118.264 91.332 118.198V117.703C91.332 117.637 91.2778 117.583 91.2109 117.583H90.2117C90.1448 117.583 90.0905 117.637 90.0905 117.703V118.198C90.0905 118.264 90.1448 118.317 90.2117 118.317Z" fill="#3F3D56"/>
<path d="M87.7288 118.317H88.728C88.7949 118.317 88.8491 118.264 88.8491 118.198V117.703C88.8491 117.637 88.7949 117.583 88.728 117.583H87.7288C87.6619 117.583 87.6076 117.637 87.6076 117.703V118.198C87.6076 118.264 87.6619 118.317 87.7288 118.317Z" fill="#3F3D56"/>
<path d="M104.365 119.785H114.055C114.122 119.785 114.176 119.732 114.176 119.666V119.171C114.176 119.105 114.122 119.051 114.055 119.051H104.365C104.298 119.051 104.244 119.105 104.244 119.171V119.666C104.244 119.732 104.298 119.785 104.365 119.785Z" fill="#3F3D56"/>
<path d="M76.8757 59.9327H140.272C140.338 59.9327 140.403 59.9066 140.45 59.86C140.497 59.8134 140.524 59.7502 140.524 59.6843C140.524 59.6184 140.497 59.5552 140.45 59.5086C140.403 59.462 140.338 59.4358 140.272 59.4358H76.8757C76.8088 59.4358 76.7447 59.462 76.6974 59.5086C76.6501 59.5552 76.6235 59.6184 76.6235 59.6843C76.6235 59.7502 76.6501 59.8134 76.6974 59.86C76.7447 59.9066 76.8088 59.9327 76.8757 59.9327Z" fill="#3F3D56"/>
<path d="M135.956 58.1674C136.772 58.1674 137.433 57.501 137.433 56.679C137.433 55.857 136.772 55.1907 135.956 55.1907C135.14 55.1907 134.479 55.857 134.479 56.679C134.479 57.501 135.14 58.1674 135.956 58.1674Z" fill="#3F3D56"/>
<path d="M130.852 58.1674C131.668 58.1674 132.33 57.501 132.33 56.679C132.33 55.857 131.668 55.1907 130.852 55.1907C130.036 55.1907 129.375 55.857 129.375 56.679C129.375 57.501 130.036 58.1674 130.852 58.1674Z" fill="#3F3D56"/>
<path d="M125.748 58.1674C126.564 58.1674 127.226 57.501 127.226 56.679C127.226 55.857 126.564 55.1907 125.748 55.1907C124.932 55.1907 124.271 55.857 124.271 56.679C124.271 57.501 124.932 58.1674 125.748 58.1674Z" fill="#3F3D56"/>
<path d="M79.6782 55.8302C79.6782 55.9011 79.7067 55.9692 79.7573 56.0196C79.808 56.07 79.8769 56.0987 79.9489 56.0993H83.574C83.6468 56.0993 83.7166 56.0708 83.768 56.0201C83.8195 55.9694 83.8484 55.9007 83.8484 55.829C83.8484 55.7573 83.8195 55.6885 83.768 55.6378C83.7166 55.5871 83.6468 55.5586 83.574 55.5586H79.9489C79.913 55.5589 79.8776 55.5662 79.8445 55.58C79.8115 55.5938 79.7816 55.6139 79.7565 55.6392C79.7313 55.6644 79.7115 55.6942 79.6981 55.727C79.6846 55.7598 79.6779 55.7948 79.6782 55.8302Z" fill="#3F3D56"/>
<path d="M79.6782 56.8456C79.6782 56.9165 79.7067 56.9846 79.7573 57.035C79.808 57.0854 79.8769 57.1141 79.9489 57.1147H83.574C83.6468 57.1147 83.7166 57.0862 83.768 57.0355C83.8195 56.9848 83.8484 56.916 83.8484 56.8443C83.8484 56.7726 83.8195 56.7039 83.768 56.6532C83.7166 56.6025 83.6468 56.574 83.574 56.574H79.9489C79.913 56.5743 79.8776 56.5816 79.8445 56.5954C79.8115 56.6092 79.7816 56.6293 79.7565 56.6545C79.7313 56.6797 79.7115 56.7096 79.6981 56.7424C79.6846 56.7752 79.6779 56.8102 79.6782 56.8456Z" fill="#3F3D56"/>
<path d="M79.6782 57.8585C79.6779 57.8938 79.6846 57.9289 79.6981 57.9617C79.7115 57.9945 79.7313 58.0243 79.7565 58.0495C79.7816 58.0747 79.8115 58.0948 79.8445 58.1087C79.8776 58.1225 79.913 58.1298 79.9489 58.1301H83.574C83.6468 58.1301 83.7166 58.1016 83.768 58.0509C83.8195 58.0002 83.8484 57.9314 83.8484 57.8597C83.8484 57.788 83.8195 57.7192 83.768 57.6685C83.7166 57.6178 83.6468 57.5894 83.574 57.5894H79.9489C79.8769 57.59 79.808 57.6186 79.7573 57.669C79.7067 57.7194 79.6782 57.7875 79.6782 57.8585Z" fill="#3F3D56"/>
<path d="M80.7989 65.7061H79.4963C79.1014 65.7061 78.7812 66.0215 78.7812 66.4107C78.7812 66.7999 79.1014 67.1154 79.4963 67.1154H80.7989C81.1938 67.1154 81.514 66.7999 81.514 66.4107C81.514 66.0215 81.1938 65.7061 80.7989 65.7061Z" fill="#4380F5"/>
<path d="M95.6964 65.7061H94.3938C93.9989 65.7061 93.6787 66.0215 93.6787 66.4107C93.6787 66.7999 93.9989 67.1154 94.3938 67.1154H95.6964C96.0913 67.1154 96.4115 66.7999 96.4115 66.4107C96.4115 66.0215 96.0913 65.7061 95.6964 65.7061Z" fill="#4380F5"/>
<path d="M99.9176 65.7061H98.615C98.2201 65.7061 97.8999 66.0215 97.8999 66.4107C97.8999 66.7999 98.2201 67.1154 98.615 67.1154H99.9176C100.312 67.1154 100.633 66.7999 100.633 66.4107C100.633 66.0215 100.312 65.7061 99.9176 65.7061Z" fill="#4380F5"/>
<path d="M91.6446 65.5886H83.5486C83.1537 65.5886 82.8335 65.9041 82.8335 66.2933C82.8335 66.6825 83.1537 66.998 83.5486 66.998H91.6446C92.0395 66.998 92.3597 66.6825 92.3597 66.2933C92.3597 65.9041 92.0395 65.5886 91.6446 65.5886Z" fill="#4380F5"/>
<path d="M111.508 65.5886H103.412C103.017 65.5886 102.697 65.9041 102.697 66.2933C102.697 66.6825 103.017 66.998 103.412 66.998H111.508C111.903 66.998 112.223 66.6825 112.223 66.2933C112.223 65.9041 111.903 65.5886 111.508 65.5886Z" fill="#4380F5"/>
<path d="M84.7716 68.887H83.469C83.0741 68.887 82.7539 69.2025 82.7539 69.5916C82.7539 69.9808 83.0741 70.2963 83.469 70.2963H84.7716C85.1665 70.2963 85.4867 69.9808 85.4867 69.5916C85.4867 69.2025 85.1665 68.887 84.7716 68.887Z" fill="#4380F5"/>
<path d="M99.6695 68.887H98.367C97.972 68.887 97.6519 69.2025 97.6519 69.5916C97.6519 69.9808 97.972 70.2963 98.367 70.2963H99.6695C100.064 70.2963 100.385 69.9808 100.385 69.5916C100.385 69.2025 100.064 68.887 99.6695 68.887Z" fill="#4380F5"/>
<path d="M103.89 68.887H102.588C102.193 68.887 101.873 69.2025 101.873 69.5916C101.873 69.9808 102.193 70.2963 102.588 70.2963H103.89C104.285 70.2963 104.605 69.9808 104.605 69.5916C104.605 69.2025 104.285 68.887 103.89 68.887Z" fill="#4380F5"/>
<path d="M95.6172 68.7693H87.5212C87.1263 68.7693 86.8062 69.0848 86.8062 69.474C86.8062 69.8631 87.1263 70.1786 87.5212 70.1786H95.6172C96.0122 70.1786 96.3323 69.8631 96.3323 69.474C96.3323 69.0848 96.0122 68.7693 95.6172 68.7693Z" fill="#4380F5"/>
<path d="M115.481 68.7693H107.385C106.99 68.7693 106.67 69.0848 106.67 69.474C106.67 69.8631 106.99 70.1786 107.385 70.1786H115.481C115.876 70.1786 116.196 69.8631 116.196 69.474C116.196 69.0848 115.876 68.7693 115.481 68.7693Z" fill="#4380F5"/>
<path d="M88.7442 72.0676H87.4417C87.0467 72.0676 86.7266 72.3831 86.7266 72.7723C86.7266 73.1615 87.0467 73.477 87.4417 73.477H88.7442C89.1392 73.477 89.4593 73.1615 89.4593 72.7723C89.4593 72.3831 89.1392 72.0676 88.7442 72.0676Z" fill="#4380F5"/>
<path d="M103.642 72.0676H102.34C101.945 72.0676 101.625 72.3831 101.625 72.7723C101.625 73.1615 101.945 73.477 102.34 73.477H103.642C104.037 73.477 104.357 73.1615 104.357 72.7723C104.357 72.3831 104.037 72.0676 103.642 72.0676Z" fill="#4380F5"/>
<path d="M107.863 72.0676H106.561C106.166 72.0676 105.846 72.3831 105.846 72.7723C105.846 73.1615 106.166 73.477 106.561 73.477H107.863C108.258 73.477 108.578 73.1615 108.578 72.7723C108.578 72.3831 108.258 72.0676 107.863 72.0676Z" fill="#4380F5"/>
<path d="M99.5899 71.9502H91.4939C91.099 71.9502 90.7788 72.2657 90.7788 72.6549C90.7788 73.044 91.099 73.3595 91.4939 73.3595H99.5899C99.9848 73.3595 100.305 73.044 100.305 72.6549C100.305 72.2657 99.9848 71.9502 99.5899 71.9502Z" fill="#4380F5"/>
<path d="M119.454 71.9502H111.358C110.963 71.9502 110.643 72.2657 110.643 72.6549C110.643 73.044 110.963 73.3595 111.358 73.3595H119.454C119.849 73.3595 120.169 73.044 120.169 72.6549C120.169 72.2657 119.849 71.9502 119.454 71.9502Z" fill="#4380F5"/>
<path d="M92.7169 75.2485H91.4143C91.0194 75.2485 90.6992 75.564 90.6992 75.9532C90.6992 76.3424 91.0194 76.6579 91.4143 76.6579H92.7169C93.1118 76.6579 93.432 76.3424 93.432 75.9532C93.432 75.564 93.1118 75.2485 92.7169 75.2485Z" fill="#4380F5"/>
<path d="M107.615 75.2485H106.312C105.917 75.2485 105.597 75.564 105.597 75.9532C105.597 76.3424 105.917 76.6579 106.312 76.6579H107.615C108.01 76.6579 108.33 76.3424 108.33 75.9532C108.33 75.564 108.01 75.2485 107.615 75.2485Z" fill="#4380F5"/>
<path d="M111.836 75.2485H110.533C110.139 75.2485 109.818 75.564 109.818 75.9532C109.818 76.3424 110.139 76.6579 110.533 76.6579H111.836C112.231 76.6579 112.551 76.3424 112.551 75.9532C112.551 75.564 112.231 75.2485 111.836 75.2485Z" fill="#4380F5"/>
<path d="M103.563 75.1309H95.4666C95.0716 75.1309 94.7515 75.4463 94.7515 75.8355C94.7515 76.2247 95.0716 76.5402 95.4666 76.5402H103.563C103.957 76.5402 104.278 76.2247 104.278 75.8355C104.278 75.4463 103.957 75.1309 103.563 75.1309Z" fill="#4380F5"/>
<path d="M95.6964 87.8967H94.3938C93.9989 87.8967 93.6787 88.2122 93.6787 88.6014C93.6787 88.9906 93.9989 89.3061 94.3938 89.3061H95.6964C96.0913 89.3061 96.4115 88.9906 96.4115 88.6014C96.4115 88.2122 96.0913 87.8967 95.6964 87.8967Z" fill="#4380F5"/>
<path d="M99.9176 87.8967H98.615C98.2201 87.8967 97.8999 88.2122 97.8999 88.6014C97.8999 88.9906 98.2201 89.3061 98.615 89.3061H99.9176C100.312 89.3061 100.633 88.9906 100.633 88.6014C100.633 88.2122 100.312 87.8967 99.9176 87.8967Z" fill="#4380F5"/>
<path d="M111.508 88.0142H103.412C103.017 88.0142 102.697 88.3297 102.697 88.7188C102.697 89.108 103.017 89.4235 103.412 89.4235H111.508C111.903 89.4235 112.223 89.108 112.223 88.7188C112.223 88.3297 111.903 88.0142 111.508 88.0142Z" fill="#4380F5"/>
<path d="M80.7989 87.8967H79.4963C79.1014 87.8967 78.7812 88.2122 78.7812 88.6014C78.7812 88.9906 79.1014 89.3061 79.4963 89.3061H80.7989C81.1938 89.3061 81.514 88.9906 81.514 88.6014C81.514 88.2122 81.1938 87.8967 80.7989 87.8967Z" fill="#4380F5"/>
<path d="M91.6446 88.0142H83.5486C83.1537 88.0142 82.8335 88.3297 82.8335 88.7188C82.8335 89.108 83.1537 89.4235 83.5486 89.4235H91.6446C92.0395 89.4235 92.3597 89.108 92.3597 88.7188C92.3597 88.3297 92.0395 88.0142 91.6446 88.0142Z" fill="#4380F5"/>
<path d="M84.7716 84.7158H83.469C83.0741 84.7158 82.7539 85.0313 82.7539 85.4205C82.7539 85.8097 83.0741 86.1252 83.469 86.1252H84.7716C85.1665 86.1252 85.4867 85.8097 85.4867 85.4205C85.4867 85.0313 85.1665 84.7158 84.7716 84.7158Z" fill="#4380F5"/>
<path d="M99.6695 84.7158H98.367C97.972 84.7158 97.6519 85.0313 97.6519 85.4205C97.6519 85.8097 97.972 86.1252 98.367 86.1252H99.6695C100.064 86.1252 100.385 85.8097 100.385 85.4205C100.385 85.0313 100.064 84.7158 99.6695 84.7158Z" fill="#4380F5"/>
<path d="M103.89 84.7158H102.588C102.193 84.7158 101.873 85.0313 101.873 85.4205C101.873 85.8097 102.193 86.1252 102.588 86.1252H103.89C104.285 86.1252 104.605 85.8097 104.605 85.4205C104.605 85.0313 104.285 84.7158 103.89 84.7158Z" fill="#4380F5"/>
<path d="M95.6172 84.8335H87.5212C87.1263 84.8335 86.8062 85.149 86.8062 85.5382C86.8062 85.9273 87.1263 86.2428 87.5212 86.2428H95.6172C96.0122 86.2428 96.3323 85.9273 96.3323 85.5382C96.3323 85.149 96.0122 84.8335 95.6172 84.8335Z" fill="#4380F5"/>
<path d="M88.7442 81.5352H87.4417C87.0467 81.5352 86.7266 81.8506 86.7266 82.2398C86.7266 82.629 87.0467 82.9445 87.4417 82.9445H88.7442C89.1392 82.9445 89.4593 82.629 89.4593 82.2398C89.4593 81.8506 89.1392 81.5352 88.7442 81.5352Z" fill="#4380F5"/>
<path d="M103.642 81.5352H102.34C101.945 81.5352 101.625 81.8506 101.625 82.2398C101.625 82.629 101.945 82.9445 102.34 82.9445H103.642C104.037 82.9445 104.357 82.629 104.357 82.2398C104.357 81.8506 104.037 81.5352 103.642 81.5352Z" fill="#4380F5"/>
<path d="M107.863 81.5352H106.561C106.166 81.5352 105.846 81.8506 105.846 82.2398C105.846 82.629 106.166 82.9445 106.561 82.9445H107.863C108.258 82.9445 108.578 82.629 108.578 82.2398C108.578 81.8506 108.258 81.5352 107.863 81.5352Z" fill="#4380F5"/>
<path d="M99.5899 81.6526H91.4939C91.099 81.6526 90.7788 81.9681 90.7788 82.3573C90.7788 82.7464 91.099 83.0619 91.4939 83.0619H99.5899C99.9848 83.0619 100.305 82.7464 100.305 82.3573C100.305 81.9681 99.9848 81.6526 99.5899 81.6526Z" fill="#4380F5"/>
<path d="M92.7169 78.3542H91.4143C91.0194 78.3542 90.6992 78.6697 90.6992 79.0589C90.6992 79.4481 91.0194 79.7636 91.4143 79.7636H92.7169C93.1118 79.7636 93.432 79.4481 93.432 79.0589C93.432 78.6697 93.1118 78.3542 92.7169 78.3542Z" fill="#4380F5"/>
<path d="M107.615 78.3542H106.312C105.917 78.3542 105.597 78.6697 105.597 79.0589C105.597 79.4481 105.917 79.7636 106.312 79.7636H107.615C108.01 79.7636 108.33 79.4481 108.33 79.0589C108.33 78.6697 108.01 78.3542 107.615 78.3542Z" fill="#4380F5"/>
<path d="M111.836 78.3542H110.533C110.139 78.3542 109.818 78.6697 109.818 79.0589C109.818 79.4481 110.139 79.7636 110.533 79.7636H111.836C112.231 79.7636 112.551 79.4481 112.551 79.0589C112.551 78.6697 112.231 78.3542 111.836 78.3542Z" fill="#4380F5"/>
<path d="M103.563 78.4717H95.4666C95.0716 78.4717 94.7515 78.7872 94.7515 79.1763C94.7515 79.5655 95.0716 79.881 95.4666 79.881H103.563C103.957 79.881 104.278 79.5655 104.278 79.1763C104.278 78.7872 103.957 78.4717 103.563 78.4717Z" fill="#4380F5"/>
<path d="M87.1106 133.581C87.0559 133.608 87.0013 133.635 86.9467 133.66C86.6016 133.828 86.2539 133.995 85.9038 134.159C84.856 134.651 83.795 135.118 82.7207 135.561C79.894 136.726 76.9936 137.709 74.0377 138.504C73.5411 135.453 73.0594 128.257 72.5976 122.965C72.5107 121.969 72.4238 121.042 72.3369 120.222C72.2544 119.146 72.0976 118.077 71.8676 117.022C71.8451 116.939 71.8126 116.859 71.7708 116.784C71.818 117.208 71.8676 118.47 71.9148 120.222C71.9396 121.042 71.962 121.969 71.9868 122.965C72.1035 128.059 72.2252 134.991 72.3468 138.937C72.0017 139.021 71.6541 139.104 71.3065 139.182C71.088 139.233 70.867 139.282 70.646 139.329C70.3778 139.388 70.1097 139.446 69.8415 139.5C69.5601 139.559 69.2795 139.615 68.9998 139.669C64.4148 140.556 59.7529 141.002 55.0803 141C54.7699 141 54.462 140.998 54.1516 140.995C54.0573 140.995 53.9629 140.993 53.8661 140.99C53.593 140.985 53.3099 140.98 53.0219 140.973C47.5 140.823 42.0143 140.043 36.674 138.651L36.89 122.965L36.9273 120.222L36.9422 119.182C36.8192 119.517 36.7456 119.867 36.7237 120.222C36.6368 120.89 36.5474 121.837 36.458 122.965C36.1178 127.31 35.7677 134.32 35.4052 138.309C31.1122 137.105 27.9737 136.006 24.0506 134.073C23.8992 134 23.7452 133.924 23.5938 133.848C23.6211 133.66 23.6509 133.471 23.6782 133.278C24.1226 130.234 23.5987 126.273 24.0903 122.965C24.4653 120.413 24.8526 117.961 25.2424 115.881C25.7142 113.378 26.1934 111.411 26.6677 110.455C27.2139 109.351 27.7602 108.265 28.289 107.225L28.9619 105.906C29.0811 105.674 29.2003 105.444 29.317 105.219C29.8483 104.193 30.3499 103.246 30.8093 102.407C31.132 101.818 31.43 101.284 31.7031 100.817C32.0234 100.266 32.3065 99.8112 32.5399 99.4662C34.2638 96.8911 36.8289 94.9738 39.81 94.0319L39.8845 94.0123L39.9565 94.0417L40.0385 94.0784L44.771 92.373L46.884 87.3596L57.7371 86.7014L59.49 88.0153L60.3864 88.6882L61.3423 89.4051L63.1003 90.7239L63.5993 90.8756L64.3417 91.1007L69.4194 92.6373L69.4716 92.6152L69.5461 92.6348C72.2588 93.4905 74.6335 95.1583 76.3395 97.406C76.5083 97.6213 76.6647 97.844 76.8162 98.0691C77.2284 98.671 77.7845 99.6228 78.44 100.817C78.7107 101.309 78.9962 101.842 79.2967 102.407C79.4779 102.747 81.0422 107.558 82.5643 112.471C83.987 117.071 85.3725 121.761 85.5538 122.965C85.586 123.188 85.6208 123.413 85.6531 123.635C85.8592 125.027 86.0628 126.429 86.2589 127.797C86.5494 129.826 86.8325 131.783 87.1031 133.532C87.1056 133.55 87.1081 133.564 87.1106 133.581Z" fill="#4380F5"/>
<path opacity="0.2" d="M75.609 115.87L73.4985 107.847L71.6362 114.771L75.609 115.87Z" fill="black"/>
<path d="M4.15871 115.777C4.2681 116.091 4.4756 116.363 4.75143 116.553C5.02726 116.744 5.35722 116.843 5.69393 116.837L12.2718 116.67C12.611 116.664 12.939 116.549 13.2066 116.344C13.4743 116.138 13.6674 115.853 13.7569 115.531L14.6877 105.722C15.018 105.87 15.3775 105.943 15.74 105.936C16.3761 105.92 16.9797 105.656 17.4182 105.201C17.8566 104.747 18.094 104.14 18.078 103.513C18.062 102.886 17.794 102.291 17.333 101.859C16.872 101.427 16.2556 101.193 15.6196 101.209C15.4747 101.209 15.3302 101.224 15.1886 101.253C15.0344 101.089 14.8471 100.959 14.6387 100.87C14.4302 100.782 14.2053 100.737 13.9784 100.74L3.86001 100.997C3.77609 101 3.6926 101.01 3.61047 101.028C3.38858 101.068 3.17813 101.155 2.99328 101.283C2.80843 101.411 2.65348 101.576 2.53884 101.768C2.4242 101.959 2.35254 102.173 2.32868 102.394C2.30482 102.615 2.32932 102.839 2.40052 103.05L4.15871 115.777ZM14.8784 105.056L15.5409 102.719C15.6162 102.449 15.6179 102.164 15.5459 101.893C15.5779 101.893 15.6064 101.878 15.6385 101.878C15.8637 101.873 16.0878 101.911 16.298 101.992C16.5081 102.072 16.7002 102.192 16.8632 102.345C17.0262 102.498 17.157 102.682 17.2481 102.885C17.3392 103.088 17.3888 103.307 17.3941 103.529C17.3993 103.751 17.3602 103.972 17.2789 104.179C17.1975 104.386 17.0756 104.575 16.9201 104.736C16.7645 104.896 16.5784 105.025 16.3723 105.115C16.1662 105.205 15.9442 105.254 15.7189 105.259C15.4253 105.268 15.1347 105.198 14.8784 105.056Z" fill="#090814"/>
<path d="M3.61035 101.027C3.82587 102.241 6.2495 103.095 9.16376 102.947C11.8436 102.824 14.0346 101.898 14.4361 100.799C14.2876 100.755 14.1331 100.735 13.9782 100.738L3.85989 100.996C3.77596 100.999 3.69247 101.009 3.61035 101.027Z" fill="#090814"/>
<path d="M10.5227 109.993C10.5396 109.988 10.5556 109.981 10.5702 109.972L12.378 108.806C12.3998 108.792 12.4178 108.773 12.4302 108.75C12.4426 108.727 12.4491 108.702 12.4491 108.676C12.4491 108.651 12.4426 108.625 12.4302 108.603C12.4178 108.58 12.3998 108.561 12.378 108.547L10.4989 107.334C10.4641 107.312 10.4216 107.304 10.3808 107.312C10.3401 107.32 10.3043 107.344 10.2815 107.379C10.2587 107.413 10.2507 107.455 10.2592 107.495C10.2677 107.535 10.292 107.571 10.3268 107.593L12.0051 108.676L10.3981 109.713C10.3672 109.733 10.3444 109.763 10.3339 109.798C10.3234 109.833 10.3258 109.871 10.3407 109.904C10.3555 109.938 10.3819 109.965 10.4151 109.981C10.4483 109.997 10.4863 110.001 10.5223 109.993H10.5227Z" fill="#F2F2F2"/>
<path d="M7.66757 110.122C7.69788 110.114 7.7252 110.098 7.74604 110.075C7.76688 110.052 7.78029 110.024 7.78455 109.993C7.78882 109.963 7.78374 109.931 7.76998 109.904C7.75622 109.876 7.7344 109.853 7.7073 109.838L6.04073 108.896L7.65143 107.717C7.68485 107.693 7.70704 107.656 7.71312 107.615C7.71919 107.575 7.70866 107.534 7.68383 107.501C7.65901 107.468 7.62192 107.446 7.58074 107.44C7.53955 107.434 7.49763 107.444 7.46421 107.469L5.66084 108.789C5.63984 108.804 5.62305 108.824 5.61198 108.848C5.60091 108.871 5.59591 108.897 5.59744 108.922C5.59897 108.948 5.60697 108.973 5.62073 108.995C5.63449 109.016 5.65357 109.035 5.67623 109.047L7.55087 110.106C7.58624 110.126 7.62808 110.132 7.66757 110.122Z" fill="#F2F2F2"/>
<path d="M10.3432 111.014C10.3583 111.011 10.3728 111.005 10.3861 110.996C10.4038 110.986 10.4191 110.972 10.4313 110.956C10.4435 110.939 10.4523 110.92 10.4572 110.901C10.4621 110.881 10.463 110.86 10.4598 110.84C10.4567 110.82 10.4495 110.801 10.4388 110.784L7.87585 106.631C7.86511 106.614 7.851 106.599 7.83433 106.587C7.81766 106.575 7.79875 106.566 7.77869 106.561C7.75863 106.557 7.73782 106.556 7.71742 106.559C7.69703 106.562 7.67746 106.569 7.65983 106.58C7.64221 106.59 7.62688 106.604 7.61471 106.621C7.60253 106.637 7.59377 106.656 7.5889 106.676C7.58404 106.695 7.58317 106.716 7.58635 106.736C7.58953 106.756 7.5967 106.775 7.60744 106.793L10.1704 110.945C10.1879 110.973 10.2143 110.995 10.2456 111.008C10.2769 111.02 10.3115 111.023 10.3442 111.014H10.3432Z" fill="#F2F2F2"/>
<path d="M195.178 133.847C195.027 133.922 194.873 133.998 194.722 134.072C190.798 136.005 187.66 137.103 183.367 138.307C183.004 134.319 182.654 127.309 182.314 122.963C182.225 121.835 182.135 120.889 182.049 120.221C182.027 119.865 181.953 119.515 181.83 119.181L181.845 120.221L181.882 122.963L182.098 138.65C176.758 140.042 171.272 140.821 165.75 140.972C165.462 140.979 165.179 140.984 164.906 140.989C164.809 140.991 164.715 140.994 164.621 140.994C164.31 140.996 164.002 140.998 163.692 140.998C157.873 141.003 152.075 140.31 146.425 138.936C146.547 134.989 146.669 128.058 146.785 122.963C146.81 121.968 146.833 121.04 146.857 120.221C146.905 118.469 146.954 117.206 147.001 116.783C146.96 116.858 146.927 116.938 146.905 117.02C146.675 118.075 146.518 119.145 146.435 120.221C146.348 121.04 146.261 121.968 146.175 122.963C145.713 128.256 145.231 135.452 144.734 138.503C141.779 137.708 138.878 136.724 136.052 135.559C134.562 134.948 133.098 134.288 131.662 133.58C131.935 131.818 132.22 129.844 132.513 127.796C132.742 126.208 132.978 124.576 133.218 122.963C133.591 120.473 146.244 93.5754 149.226 92.6333L149.301 92.6138L149.353 92.6358L154.43 91.0992L155.173 90.8741L155.672 90.7224L157.43 89.4036L158.386 88.6867L159.282 88.0139L161.035 86.7L171.888 87.3581L174.001 92.3715L178.734 94.0769L178.816 94.0402L178.888 94.0109L178.962 94.0304C181.943 94.9723 184.508 96.8896 186.232 99.4647C186.466 99.8097 186.749 100.265 187.069 100.815C187.342 101.283 187.64 101.816 187.963 102.406C188.422 103.245 188.924 104.192 189.455 105.217C189.572 105.442 189.691 105.672 189.81 105.905C190.031 106.335 190.256 106.775 190.483 107.223C191.012 108.263 191.558 109.35 192.105 110.453C192.579 111.41 193.058 113.377 193.53 115.88C193.92 117.96 194.307 120.411 194.682 122.963C195.173 126.271 194.65 130.233 195.094 133.277C195.121 133.471 195.151 133.659 195.178 133.847Z" fill="#4380F5"/>
<path d="M163.348 84.9011C170.319 84.9011 175.97 79.3323 175.97 72.4628C175.97 65.5933 170.319 60.0244 163.348 60.0244C156.377 60.0244 150.726 65.5933 150.726 72.4628C150.726 79.3323 156.377 84.9011 163.348 84.9011Z" fill="#FFB9B9"/>
<path opacity="0.2" d="M143.163 115.87L145.273 107.847L147.135 114.771L143.163 115.87Z" fill="black"/>
<path d="M199.305 110.643C198.551 120.89 199.333 125.401 195.166 133.85C191.375 135.678 187.427 137.17 183.367 138.308C182.945 138.426 182.522 138.54 182.098 138.651C176.758 140.043 171.272 140.822 165.751 140.973C165.463 140.98 165.179 140.985 164.906 140.99C164.809 140.992 164.715 140.995 164.621 140.995C164.31 140.997 164.003 141 163.692 141C157.873 141.004 152.075 140.311 146.426 138.937C145.859 138.8 145.296 138.656 144.735 138.504C141.779 137.709 138.878 136.725 136.052 135.56C134.562 134.949 133.099 134.289 131.662 133.581C131.337 133.419 131.011 133.258 130.691 133.092C129.045 130.239 128.109 126.769 128.089 122.6C129.229 115.416 196.788 104.447 199.305 110.643Z" fill="#E6E6E6"/>
<path opacity="0.2" d="M199.303 112.397C199.342 111.763 199.385 111.108 199.435 110.425C196.918 104.23 129.358 115.199 128.219 122.383C128.222 123.041 128.251 123.679 128.298 124.305C131.059 117.214 195.241 106.789 199.303 112.397Z" fill="black"/>
<path d="M128.911 118.085L134.456 115.353L129.835 103.058L128.619 96.8572C128.46 96.0516 128.09 95.3011 127.546 94.6806C127.001 94.0601 126.3 93.5913 125.514 93.3212C124.728 93.051 123.883 92.989 123.065 93.1412C122.247 93.2934 121.484 93.6545 120.851 94.1885C119.915 94.9798 119.326 96.0988 119.211 97.3094C119.095 98.52 119.462 99.7274 120.232 100.677L124.753 106.245L128.911 118.085Z" fill="#FFB9B9"/>
<path d="M131.954 106.117L124.56 109.76L130.172 127.085C130.575 128.329 131.297 129.449 132.269 130.338C133.24 131.226 134.428 131.851 135.718 132.154C137.307 132.527 138.976 132.391 140.482 131.766C141.989 131.141 143.254 130.06 144.094 128.679L158.973 103.548C160.027 101.816 160.353 99.7469 159.879 97.7819C159.406 95.8168 158.172 94.112 156.44 93.0317C155.509 92.4503 154.464 92.0687 153.373 91.9118C152.283 91.7548 151.17 91.8259 150.109 92.1206C149.048 92.4152 148.062 92.9267 147.215 93.6218C146.368 94.3169 145.679 95.18 145.193 96.155L136.113 115.224L131.954 106.117Z" fill="#4380F5"/>
<path d="M52.2488 84.0428C59.9192 84.0428 66.1373 77.9154 66.1373 70.3569C66.1373 62.7983 59.9192 56.6709 52.2488 56.6709C44.5784 56.6709 38.3604 62.7983 38.3604 70.3569C38.3604 77.9154 44.5784 84.0428 52.2488 84.0428Z" fill="#FFB9B9"/>
<path d="M38.5269 60.9259C39.6562 59.4261 41.2793 58.3597 42.5208 56.9487C43.2018 56.1745 43.7675 55.2971 44.5335 54.6042C45.9562 53.3165 47.9461 52.7887 49.8768 52.7231C51.9928 52.6695 54.0919 53.1075 56.0042 54.0018C57.9164 54.896 59.5882 56.2214 60.8841 57.8706L63.9118 56.1215L65.1078 59.2239C65.4351 58.9437 65.8524 58.7867 66.2859 58.7807C66.7194 58.7747 67.1411 58.9202 67.4761 59.1913C67.8112 59.4624 68.038 59.8416 68.1165 60.2617C68.1949 60.6819 68.1199 61.1159 67.9047 61.4867C68.1448 60.7554 69.2455 60.6003 69.8518 61.0832C70.4581 61.5662 70.6215 62.426 70.5222 63.1875C70.398 64.0239 70.0227 64.8047 69.4446 65.4293C68.8665 66.0539 68.112 66.4939 67.2782 66.6927C65.9622 66.9819 64.4285 66.678 63.3742 67.5079C62.53 68.1735 62.274 69.3851 61.4127 70.0281C60.35 70.8209 58.848 70.4543 57.5268 70.6295C55.2157 70.9361 53.3857 73.2654 53.6633 75.5475C53.4543 74.8277 53.2345 74.0868 52.7598 73.502C52.285 72.9172 51.4858 72.5216 50.758 72.7367C49.5548 73.0922 49.3579 74.7083 49.6496 75.9121C50.4231 79.1051 53.354 84.2663 53.354 84.2663C49.5481 85.7456 45.0139 84.3468 42.0776 81.5396C39.1412 78.7325 37.6117 74.7575 36.9455 70.7798C36.3796 67.4076 36.4598 63.6714 38.5269 60.9259Z" fill="#090814"/>
<path d="M179.167 79.3196C181.809 73.3495 180.312 67.8565 177.091 64.9424V64.94C175.824 62.1433 174.141 59.9853 172.214 59.4788C171.283 58.8891 170.379 58.1967 169.376 57.8444C168.909 57.672 168.411 57.5946 167.913 57.6169C167.414 57.6392 166.926 57.7607 166.476 57.9741L165.965 57.8395C164.835 57.6802 165.937 57.9327 164.455 57.4431C162.275 56.4424 160.311 55.9946 158.563 55.9946C152.862 55.9946 149.49 60.7511 148.596 66.501L153.361 67.7513L155.017 65.1504L154.252 67.9862L156.882 68.6737C160.884 73.8095 156.095 85.6567 150.024 92.2483C151.469 91.8544 152.908 91.5216 154.342 91.25L159.551 83.7238L156.323 90.5747C157.999 90.3325 160.137 90.5649 162.474 91.0323C163.261 90.0193 163.675 88.6687 163.268 87.4649C163.934 88.7345 164.393 90.0993 164.629 91.5094C169.56 92.6961 176.286 93.3053 179.911 93.7555C182.84 92.8145 182.848 82.1725 179.167 79.3196Z" fill="#090814"/>
<path d="M180.886 59.0135C182.821 63.2839 178.916 65.1207 175.339 65.0688C172.106 65.0218 169.359 62.784 169.194 59.6025C169.114 58.0746 169.654 56.5784 170.695 55.4428C171.735 54.3072 173.19 53.6254 174.741 53.5472C177.969 53.3845 179.568 56.1048 180.886 59.0135Z" fill="#090814"/>
<path d="M90.9099 129.777L87.5723 124.107L98.6711 115.53L103.285 110.568C103.873 109.927 104.626 109.454 105.463 109.199C106.301 108.944 107.193 108.916 108.045 109.119C108.904 109.332 109.69 109.765 110.326 110.372C110.962 110.98 111.425 111.742 111.667 112.581C112.448 115.199 111.052 117.975 108.511 118.859L101.341 121.353L90.9099 129.777Z" fill="#FFB9B9"/>
<path d="M93.405 128.358L88.4416 132.434L87.1033 133.533L86.9468 133.66C86.6017 133.829 86.2541 133.995 85.904 134.159C84.8562 134.651 83.7951 135.118 82.7208 135.561C79.8941 136.726 76.9937 137.709 74.0379 138.504C73.4767 138.656 72.9131 138.8 72.347 138.937C72.0019 139.021 71.6542 139.104 71.3066 139.182C71.0881 139.233 70.8671 139.282 70.6462 139.329C70.378 139.388 70.1098 139.446 69.8417 139.5C69.5603 139.559 69.2797 139.615 68.9999 139.669C68.245 138.961 67.6439 138.109 67.2333 137.166C66.8226 136.222 66.6111 135.205 66.6113 134.178C66.6113 134.112 66.6113 134.044 66.6138 133.975L67.4108 113.831L67.7634 104.903C67.8177 102.884 68.6712 100.966 70.1415 99.5586C71.6118 98.1514 73.5823 97.3665 75.6319 97.3719C75.8703 97.3719 76.1062 97.3841 76.3396 97.4061C76.5084 97.6214 76.6649 97.8441 76.8163 98.0692C77.2285 98.6711 77.7847 99.6229 78.4402 100.817C78.7108 101.309 78.9964 101.842 79.2968 102.407C79.4781 102.747 81.0423 107.558 82.5644 112.471L81.894 117.602L80.6823 126.85L85.6532 123.635L89.1542 121.37L89.5689 122.052L90.6489 123.829L92.7346 127.254L93.405 128.358Z" fill="#4380F5"/>
<path d="M90.6833 122.6C90.6808 123.016 90.6709 123.425 90.6485 123.829C90.5968 124.942 90.4657 126.051 90.2562 127.146C89.9135 128.986 89.3022 130.767 88.4412 132.434C88.327 132.656 88.2053 132.877 88.0812 133.092C87.7609 133.258 87.4356 133.42 87.1103 133.581C87.0557 133.608 87.0011 133.635 86.9464 133.66C85.5634 134.337 84.1548 134.971 82.7204 135.561C79.8937 136.726 76.9933 137.709 74.0375 138.504C73.4763 138.656 72.9127 138.8 72.3466 138.937C71.2417 139.206 70.126 139.45 68.9995 139.669C64.4145 140.556 59.7527 141.002 55.08 141C54.7696 141 54.4618 140.998 54.1514 140.995C54.057 140.995 53.9627 140.993 53.8658 140.99C53.5927 140.985 53.3097 140.98 53.0216 140.973C47.4997 140.823 42.014 140.043 36.6738 138.651C36.2492 138.541 35.8263 138.427 35.405 138.309C31.3454 137.171 27.3968 135.679 23.6059 133.851C19.4395 125.402 20.2216 120.89 19.4668 110.643C21.0162 106.828 47.2289 109.522 67.4104 113.831C72.8879 115.001 77.9184 116.29 81.8936 117.602C86.0004 118.955 88.9775 120.33 90.1445 121.622C90.4172 121.889 90.6045 122.229 90.6833 122.6Z" fill="#E6E6E6"/>
<path opacity="0.2" d="M19.4683 112.397C19.4298 111.763 19.3866 111.108 19.3364 110.425C21.8542 104.23 89.4132 115.199 90.5529 122.383C90.5497 123.041 90.5211 123.679 90.4732 124.305C87.7132 117.214 23.5309 106.789 19.4683 112.397Z" fill="black"/>
</g>
</g>
<defs>
<clipPath id="clip0_104_349">
<rect width="219.029" height="141" fill="white"/>
</clipPath>
<clipPath id="clip1_104_349">
<rect width="219.029" height="141" fill="white"/>
</clipPath>
</defs>
</svg>
