<svg width="128" height="120" viewBox="0 0 128 120" fill="none" xmlns="http://www.w3.org/2000/svg">
<g clip-path="url(#clip0_53_239)">
<path d="M128 60.0003C128.022 74.1634 122.678 87.8737 112.921 98.6867C112.567 99.0812 112.206 99.4701 111.838 99.8556C107.512 104.417 102.473 108.336 96.8927 111.48C95.6127 112.2 94.3047 112.879 92.9686 113.516C92.8335 113.581 92.6962 113.645 92.5611 113.707C92.3995 113.784 92.2356 113.859 92.0717 113.934C88.6907 115.485 85.169 116.752 81.5483 117.717C81.1718 117.817 80.7946 117.914 80.4168 118.008C75.6539 119.189 70.7612 119.85 65.8363 119.978C65.5794 119.984 65.327 119.988 65.0834 119.992C64.997 119.995 64.913 119.997 64.8287 119.997C64.5519 119.999 64.2776 120.001 64.0004 120.001C58.8105 120.004 53.6393 119.417 48.6006 118.251C48.0957 118.134 47.593 118.012 47.0925 117.883C44.4563 117.209 41.8694 116.374 39.3483 115.386C38.0196 114.867 36.7145 114.307 35.433 113.706C35.1428 113.569 34.8527 113.432 34.567 113.291C34.4452 113.235 34.3256 113.174 34.2061 113.117C27.3761 109.737 21.2512 105.232 16.1245 99.8166C15.7702 99.4449 15.4225 99.0666 15.0792 98.6872C9.43053 92.4085 5.217 85.1093 2.69957 77.2419C0.182135 69.3745 -0.585599 61.1063 0.443909 52.9494C1.47342 44.7925 4.27825 36.9206 8.68469 29.8213C13.0911 22.7219 19.0053 16.5463 26.061 11.6768C26.4242 11.4256 26.7899 11.1768 27.1595 10.9335L27.3787 10.7903C33.8769 6.52301 41.1705 3.43511 48.8818 1.68644C49.3202 1.58478 49.7588 1.48928 50.2017 1.39994C58.5543 -0.312722 67.1865 -0.454347 75.5979 0.983277C76.0386 1.06011 76.4794 1.13894 76.9178 1.22411C84.5602 2.6937 91.8492 5.46859 98.4209 9.4103C98.567 9.49747 98.7131 9.58463 98.8593 9.67597C99.1538 9.85447 99.4482 10.0371 99.7384 10.222C108.444 15.7087 115.575 23.1194 120.504 31.8004C125.433 40.4815 128.007 50.1661 128 60.0003Z" fill="#F2F2F2"/>
<path d="M47.834 91.0402L27.3784 92.7427L27.1592 92.7614V10.933L27.3784 10.7899C31.6415 7.99432 36.2531 5.69773 41.1106 3.95117L42.1565 17.4665L42.2518 18.7039L43.2859 32.1074L43.6049 36.2306L47.7963 90.5629L47.834 91.0402Z" fill="#D6D6E3"/>
<path d="M98.4207 9.409C98.5668 9.49617 98.7129 9.58333 98.8591 9.67467V92.7614L98.4207 92.7241L78.1865 91.0407L78.2242 90.5632L82.4164 36.2311L82.7353 32.1079L83.7695 18.7044L83.8647 17.4662L84.9609 3.29248C89.6882 4.82881 94.206 6.88185 98.4208 9.40916L98.4207 9.409Z" fill="#D6D6E3"/>
<path d="M98.4197 9.40918V93.8949C98.4197 95.5164 97.2286 96.8347 95.7623 96.8347H30.0357C28.8222 96.8347 27.7924 95.9296 27.4802 94.6942C27.412 94.4324 27.3778 94.1638 27.3783 93.8942V10.7892L27.1591 10.9323C26.7893 11.1752 26.4238 11.4244 26.0606 11.6757V93.8949C26.0411 95.1266 26.5318 96.3173 27.4295 97.2168C27.9003 97.6788 28.4956 98.0128 29.1524 98.1834C29.4403 98.2568 29.7375 98.2938 30.0359 98.2934H95.763C96.0622 98.2937 96.3601 98.2567 96.6489 98.1834C98.416 97.7371 99.7381 95.9847 99.7381 93.8941V10.221C99.448 10.0362 99.1534 9.85435 98.859 9.67501C98.7127 9.58351 98.5666 9.49635 98.4197 9.40918Z" fill="#D6D6E3"/>
<path d="M99.0799 17.4673H26.7197V18.7045H99.0799V17.4673Z" fill="#D6D6E3"/>
<path d="M48.8813 1.68591C49.3197 1.58425 49.7583 1.48875 50.2012 1.39941V34.9928H48.8813V1.68591Z" fill="#D6D6E3"/>
<path d="M75.5977 0.982178C76.0384 1.05901 76.4791 1.13785 76.9175 1.22301V34.9939H75.5977V0.982178Z" fill="#D6D6E3"/>
<path d="M107.328 90.5627H20.6708C19.0956 90.5627 17.5849 91.1494 16.4711 92.1936C15.3572 93.2379 14.7314 94.6542 14.7314 96.1309C14.7314 97.6077 15.3572 99.024 16.4711 100.068C17.5849 101.112 19.0956 101.699 20.6708 101.699H107.328C108.171 101.699 109.005 101.531 109.774 101.204C110.542 100.878 111.228 100.402 111.784 99.8069C112.036 99.5386 112.259 99.2484 112.452 98.9403C112.601 98.7037 112.731 98.4566 112.84 98.2013C113.201 97.3566 113.336 96.4416 113.233 95.5366C113.13 94.6315 112.792 93.764 112.248 93.0101C111.704 92.2561 110.971 91.6388 110.113 91.2122C109.255 90.7856 108.299 90.5628 107.328 90.5632L107.328 90.5627Z" fill="#D6D6E3"/>
<path d="M99.08 32.1072H27.1597V36.231H99.08V32.1072Z" fill="#D6D6E3"/>
<path d="M62.4599 30.8701H63.7796C64.0973 30.8701 64.4119 30.9288 64.7054 31.0428C64.999 31.1568 65.2657 31.3239 65.4904 31.5345C65.715 31.7451 65.8932 31.9952 66.0148 32.2704C66.1364 32.5456 66.1989 32.8406 66.1989 33.1385H60.0405C60.0405 32.5369 60.2954 31.96 60.7491 31.5346C61.2029 31.1093 61.8182 30.8701 62.4599 30.8701Z" fill="#D6D6E3"/>
<path d="M112.921 98.6865C110.997 100.823 108.917 102.832 106.694 104.697H21.3063C19.0837 102.832 17.0029 100.823 15.0791 98.6865H112.921Z" fill="#3F3D56"/>
<path d="M71.1483 77.8694H56.7716C56.6941 77.8687 56.6171 77.8799 56.5435 77.9028C56.3875 77.9481 56.2511 78.0391 56.1542 78.1624C56.0574 78.2857 56.0052 78.4348 56.0054 78.5879V99.8805H71.9165V78.5878C71.9164 78.4933 71.8964 78.3997 71.8578 78.3125C71.8191 78.2253 71.7624 78.146 71.6911 78.0793C71.6197 78.0126 71.5351 77.9597 71.4419 77.9237C71.3487 77.8877 71.2491 77.8692 71.1483 77.8694ZM65.7072 88.3744C65.7078 88.7198 65.5863 89.0556 65.3618 89.3295C65.1476 89.5952 64.8498 89.7912 64.5104 89.8899C64.1711 89.9885 63.8072 89.9848 63.4702 89.8794C63.1332 89.7739 62.8399 89.5719 62.6318 89.3019C62.4237 89.032 62.3113 88.7075 62.3103 88.3744V85.9039C62.3103 85.4816 62.4892 85.0766 62.8078 84.7779C63.1263 84.4793 63.5583 84.3115 64.0088 84.3115C64.4593 84.3115 64.8914 84.4793 65.2099 84.7779C65.5285 85.0766 65.7074 85.4816 65.7074 85.9039L65.7072 88.3744Z" fill="#2F2E41"/>
<path d="M55.957 99.1995V101.253C55.957 101.359 56.0018 101.461 56.0818 101.537C56.1617 101.612 56.2703 101.655 56.3837 101.656H71.5377C71.651 101.655 71.7593 101.612 71.8392 101.536C71.919 101.461 71.964 101.359 71.9643 101.253V99.1995H55.957Z" fill="#3F3D56"/>
<path d="M94.9545 44.6409H33.5014C32.9733 44.6415 32.467 44.8383 32.0935 45.1882C31.7199 45.5381 31.5095 46.0125 31.5083 46.5075V85.3848C31.5087 85.8802 31.7188 86.3553 32.0925 86.7056C32.4662 87.0559 32.9729 87.2529 33.5014 87.2533H94.9545C95.483 87.2529 95.9897 87.0559 96.3634 86.7056C96.737 86.3553 96.9472 85.8802 96.9476 85.3848V46.5074C96.9464 46.0124 96.7359 45.538 96.3624 45.1881C95.9888 44.8383 95.4825 44.6415 94.9545 44.6409Z" fill="#3F3D56"/>
<path d="M94.4407 45.9905H34.013C33.7303 45.9908 33.4594 46.0963 33.2597 46.2838C33.0599 46.4713 32.9478 46.7255 32.9478 46.9905V84.9054C32.9482 85.1701 33.0606 85.4239 33.2602 85.6111C33.4599 85.7983 33.7306 85.9036 34.013 85.9039H94.4407C94.7231 85.9036 94.9939 85.7982 95.1936 85.611C95.3933 85.4238 95.5056 85.17 95.506 84.9053V46.9911C95.506 46.7262 95.3938 46.4721 95.1941 46.2846C94.9944 46.0971 94.7235 45.9915 94.4409 45.9911L94.4407 45.9905Z" fill="#6C63FF"/>
<path d="M83.3197 101.622L82.7616 99.1365C82.7384 99.0353 82.6886 98.9411 82.6166 98.8625C82.5447 98.7839 82.4529 98.7234 82.3497 98.6865C82.275 98.659 82.1954 98.6449 82.1151 98.645H47.2782C47.1979 98.6449 47.1183 98.659 47.0436 98.6865C46.9404 98.7234 46.8486 98.7839 46.7767 98.8625C46.7047 98.9411 46.6549 99.0353 46.6317 99.1365L46.0736 101.622C46.0535 101.712 46.055 101.805 46.0781 101.895C46.1013 101.984 46.1454 102.068 46.2073 102.14C46.2693 102.211 46.3474 102.269 46.4361 102.309C46.5249 102.348 46.6219 102.369 46.7202 102.369H82.6708C82.7694 102.369 82.8669 102.349 82.9559 102.309C83.0449 102.269 83.1231 102.211 83.1846 102.139C83.2466 102.067 83.2909 101.984 83.3143 101.894C83.3376 101.805 83.3395 101.712 83.3197 101.622Z" fill="#2F2E41"/>
<path d="M48.5541 99.0928H47.6204C47.5725 99.0928 47.5337 99.1292 47.5337 99.1741V99.6343C47.5337 99.6792 47.5725 99.7156 47.6204 99.7156H48.5541C48.602 99.7156 48.6409 99.6792 48.6409 99.6343V99.1741C48.6409 99.1292 48.602 99.0928 48.5541 99.0928Z" fill="#3F3D56"/>
<path d="M50.7685 99.0928H49.8348C49.7869 99.0928 49.748 99.1292 49.748 99.1741V99.6343C49.748 99.6792 49.7869 99.7156 49.8348 99.7156H50.7685C50.8164 99.7156 50.8552 99.6792 50.8552 99.6343V99.1741C50.8552 99.1292 50.8164 99.0928 50.7685 99.0928Z" fill="#3F3D56"/>
<path d="M52.9828 99.0928H52.0492C52.0012 99.0928 51.9624 99.1292 51.9624 99.1741V99.6343C51.9624 99.6792 52.0012 99.7156 52.0492 99.7156H52.9828C53.0308 99.7156 53.0696 99.6792 53.0696 99.6343V99.1741C53.0696 99.1292 53.0308 99.0928 52.9828 99.0928Z" fill="#3F3D56"/>
<path d="M55.1977 99.0928H54.264C54.2161 99.0928 54.1772 99.1292 54.1772 99.1741V99.6343C54.1772 99.6792 54.2161 99.7156 54.264 99.7156H55.1977C55.2456 99.7156 55.2844 99.6792 55.2844 99.6343V99.1741C55.2844 99.1292 55.2456 99.0928 55.1977 99.0928Z" fill="#3F3D56"/>
<path d="M57.412 99.0928H56.4784C56.4304 99.0928 56.3916 99.1292 56.3916 99.1741V99.6343C56.3916 99.6792 56.4304 99.7156 56.4784 99.7156H57.412C57.46 99.7156 57.4988 99.6792 57.4988 99.6343V99.1741C57.4988 99.1292 57.46 99.0928 57.412 99.0928Z" fill="#3F3D56"/>
<path d="M59.6264 99.0928H58.6927C58.6448 99.0928 58.606 99.1292 58.606 99.1741V99.6343C58.606 99.6792 58.6448 99.7156 58.6927 99.7156H59.6264C59.6743 99.7156 59.7132 99.6792 59.7132 99.6343V99.1741C59.7132 99.1292 59.6743 99.0928 59.6264 99.0928Z" fill="#3F3D56"/>
<path d="M61.8412 99.0928H60.9076C60.8596 99.0928 60.8208 99.1292 60.8208 99.1741V99.6343C60.8208 99.6792 60.8596 99.7156 60.9076 99.7156H61.8412C61.8892 99.7156 61.928 99.6792 61.928 99.6343V99.1741C61.928 99.1292 61.8892 99.0928 61.8412 99.0928Z" fill="#3F3D56"/>
<path d="M64.0556 99.0928H63.1219C63.074 99.0928 63.0352 99.1292 63.0352 99.1741V99.6343C63.0352 99.6792 63.074 99.7156 63.1219 99.7156H64.0556C64.1035 99.7156 64.1424 99.6792 64.1424 99.6343V99.1741C64.1424 99.1292 64.1035 99.0928 64.0556 99.0928Z" fill="#3F3D56"/>
<path d="M66.27 99.0928H65.3363C65.2884 99.0928 65.2495 99.1292 65.2495 99.1741V99.6343C65.2495 99.6792 65.2884 99.7156 65.3363 99.7156H66.27C66.3179 99.7156 66.3567 99.6792 66.3567 99.6343V99.1741C66.3567 99.1292 66.3179 99.0928 66.27 99.0928Z" fill="#3F3D56"/>
<path d="M68.4848 99.0928H67.5511C67.5032 99.0928 67.4644 99.1292 67.4644 99.1741V99.6343C67.4644 99.6792 67.5032 99.7156 67.5511 99.7156H68.4848C68.5327 99.7156 68.5716 99.6792 68.5716 99.6343V99.1741C68.5716 99.1292 68.5327 99.0928 68.4848 99.0928Z" fill="#3F3D56"/>
<path d="M70.6992 99.0928H69.7655C69.7176 99.0928 69.6787 99.1292 69.6787 99.1741V99.6343C69.6787 99.6792 69.7176 99.7156 69.7655 99.7156H70.6992C70.7471 99.7156 70.7859 99.6792 70.7859 99.6343V99.1741C70.7859 99.1292 70.7471 99.0928 70.6992 99.0928Z" fill="#3F3D56"/>
<path d="M72.9135 99.0928H71.9798C71.9319 99.0928 71.8931 99.1292 71.8931 99.1741V99.6343C71.8931 99.6792 71.9319 99.7156 71.9798 99.7156H72.9135C72.9614 99.7156 73.0003 99.6792 73.0003 99.6343V99.1741C73.0003 99.1292 72.9614 99.0928 72.9135 99.0928Z" fill="#3F3D56"/>
<path d="M75.1284 99.0928H74.1947C74.1468 99.0928 74.1079 99.1292 74.1079 99.1741V99.6343C74.1079 99.6792 74.1468 99.7156 74.1947 99.7156H75.1284C75.1763 99.7156 75.2151 99.6792 75.2151 99.6343V99.1741C75.2151 99.1292 75.1763 99.0928 75.1284 99.0928Z" fill="#3F3D56"/>
<path d="M77.3427 99.0928H76.409C76.3611 99.0928 76.3223 99.1292 76.3223 99.1741V99.6343C76.3223 99.6792 76.3611 99.7156 76.409 99.7156H77.3427C77.3906 99.7156 77.4295 99.6792 77.4295 99.6343V99.1741C77.4295 99.1292 77.3906 99.0928 77.3427 99.0928Z" fill="#3F3D56"/>
<path d="M79.5576 99.0928H78.6239C78.576 99.0928 78.5371 99.1292 78.5371 99.1741V99.6343C78.5371 99.6792 78.576 99.7156 78.6239 99.7156H79.5576C79.6055 99.7156 79.6443 99.6792 79.6443 99.6343V99.1741C79.6443 99.1292 79.6055 99.0928 79.5576 99.0928Z" fill="#3F3D56"/>
<path d="M81.7719 99.0928H80.8382C80.7903 99.0928 80.7515 99.1292 80.7515 99.1741V99.6343C80.7515 99.6792 80.7903 99.7156 80.8382 99.7156H81.7719C81.8198 99.7156 81.8587 99.6792 81.8587 99.6343V99.1741C81.8587 99.1292 81.8198 99.0928 81.7719 99.0928Z" fill="#3F3D56"/>
<path d="M48.5278 100.131H47.5941C47.5462 100.131 47.5073 100.167 47.5073 100.212V100.672C47.5073 100.717 47.5462 100.753 47.5941 100.753H48.5278C48.5757 100.753 48.6145 100.717 48.6145 100.672V100.212C48.6145 100.167 48.5757 100.131 48.5278 100.131Z" fill="#3F3D56"/>
<path d="M50.7421 100.131H49.8084C49.7605 100.131 49.7217 100.167 49.7217 100.212V100.672C49.7217 100.717 49.7605 100.753 49.8084 100.753H50.7421C50.79 100.753 50.8289 100.717 50.8289 100.672V100.212C50.8289 100.167 50.79 100.131 50.7421 100.131Z" fill="#3F3D56"/>
<path d="M52.957 100.131H52.0233C51.9754 100.131 51.9365 100.167 51.9365 100.212V100.672C51.9365 100.717 51.9754 100.753 52.0233 100.753H52.957C53.0049 100.753 53.0437 100.717 53.0437 100.672V100.212C53.0437 100.167 53.0049 100.131 52.957 100.131Z" fill="#3F3D56"/>
<path d="M55.1713 100.131H54.2376C54.1897 100.131 54.1509 100.167 54.1509 100.212V100.672C54.1509 100.717 54.1897 100.753 54.2376 100.753H55.1713C55.2192 100.753 55.2581 100.717 55.2581 100.672V100.212C55.2581 100.167 55.2192 100.131 55.1713 100.131Z" fill="#3F3D56"/>
<path d="M57.3857 100.131H56.452C56.4041 100.131 56.3652 100.167 56.3652 100.212V100.672C56.3652 100.717 56.4041 100.753 56.452 100.753H57.3857C57.4336 100.753 57.4724 100.717 57.4724 100.672V100.212C57.4724 100.167 57.4336 100.131 57.3857 100.131Z" fill="#3F3D56"/>
<path d="M59.6005 100.131H58.6668C58.6189 100.131 58.5801 100.167 58.5801 100.212V100.672C58.5801 100.717 58.6189 100.753 58.6668 100.753H59.6005C59.6484 100.753 59.6873 100.717 59.6873 100.672V100.212C59.6873 100.167 59.6484 100.131 59.6005 100.131Z" fill="#3F3D56"/>
<path d="M61.8149 100.131H60.8812C60.8333 100.131 60.7944 100.167 60.7944 100.212V100.672C60.7944 100.717 60.8333 100.753 60.8812 100.753H61.8149C61.8628 100.753 61.9016 100.717 61.9016 100.672V100.212C61.9016 100.167 61.8628 100.131 61.8149 100.131Z" fill="#3F3D56"/>
<path d="M64.0292 100.131H63.0955C63.0476 100.131 63.0088 100.167 63.0088 100.212V100.672C63.0088 100.717 63.0476 100.753 63.0955 100.753H64.0292C64.0771 100.753 64.116 100.717 64.116 100.672V100.212C64.116 100.167 64.0771 100.131 64.0292 100.131Z" fill="#3F3D56"/>
<path d="M66.2441 100.131H65.3104C65.2625 100.131 65.2236 100.167 65.2236 100.212V100.672C65.2236 100.717 65.2625 100.753 65.3104 100.753H66.2441C66.292 100.753 66.3308 100.717 66.3308 100.672V100.212C66.3308 100.167 66.292 100.131 66.2441 100.131Z" fill="#3F3D56"/>
<path d="M68.4584 100.131H67.5247C67.4768 100.131 67.438 100.167 67.438 100.212V100.672C67.438 100.717 67.4768 100.753 67.5247 100.753H68.4584C68.5063 100.753 68.5452 100.717 68.5452 100.672V100.212C68.5452 100.167 68.5063 100.131 68.4584 100.131Z" fill="#3F3D56"/>
<path d="M70.6728 100.131H69.7391C69.6912 100.131 69.6523 100.167 69.6523 100.212V100.672C69.6523 100.717 69.6912 100.753 69.7391 100.753H70.6728C70.7207 100.753 70.7595 100.717 70.7595 100.672V100.212C70.7595 100.167 70.7207 100.131 70.6728 100.131Z" fill="#3F3D56"/>
<path d="M72.8876 100.131H71.9539C71.906 100.131 71.8672 100.167 71.8672 100.212V100.672C71.8672 100.717 71.906 100.753 71.9539 100.753H72.8876C72.9355 100.753 72.9744 100.717 72.9744 100.672V100.212C72.9744 100.167 72.9355 100.131 72.8876 100.131Z" fill="#3F3D56"/>
<path d="M75.102 100.131H74.1683C74.1204 100.131 74.0815 100.167 74.0815 100.212V100.672C74.0815 100.717 74.1204 100.753 74.1683 100.753H75.102C75.1499 100.753 75.1887 100.717 75.1887 100.672V100.212C75.1887 100.167 75.1499 100.131 75.102 100.131Z" fill="#3F3D56"/>
<path d="M77.3168 100.131H76.3831C76.3352 100.131 76.2964 100.167 76.2964 100.212V100.672C76.2964 100.717 76.3352 100.753 76.3831 100.753H77.3168C77.3647 100.753 77.4036 100.717 77.4036 100.672V100.212C77.4036 100.167 77.3647 100.131 77.3168 100.131Z" fill="#3F3D56"/>
<path d="M79.5312 100.131H78.5975C78.5496 100.131 78.5107 100.167 78.5107 100.212V100.672C78.5107 100.717 78.5496 100.753 78.5975 100.753H79.5312C79.5791 100.753 79.6179 100.717 79.6179 100.672V100.212C79.6179 100.167 79.5791 100.131 79.5312 100.131Z" fill="#3F3D56"/>
<path d="M81.7455 100.131H80.8119C80.7639 100.131 80.7251 100.167 80.7251 100.212V100.672C80.7251 100.717 80.7639 100.753 80.8119 100.753H81.7455C81.7935 100.753 81.8323 100.717 81.8323 100.672V100.212C81.8323 100.167 81.7935 100.131 81.7455 100.131Z" fill="#3F3D56"/>
<path d="M66.9086 101.376H58.224C58.176 101.376 58.1372 101.413 58.1372 101.458V101.918C58.1372 101.963 58.176 101.999 58.224 101.999H66.9086C66.9565 101.999 66.9953 101.963 66.9953 101.918V101.458C66.9953 101.413 66.9565 101.376 66.9086 101.376Z" fill="#3F3D56"/>
<path d="M91.4041 51.2132H34.8621C34.8025 51.2132 34.7453 51.191 34.7031 51.1514C34.6609 51.1119 34.6372 51.0583 34.6372 51.0023C34.6372 50.9464 34.6609 50.8928 34.7031 50.8533C34.7453 50.8137 34.8025 50.7915 34.8621 50.7915H91.4041C91.4638 50.7915 91.521 50.8137 91.5632 50.8533C91.6053 50.8928 91.629 50.9464 91.629 51.0023C91.629 51.0583 91.6053 51.1119 91.5632 51.1514C91.521 51.191 91.4638 51.2132 91.4041 51.2132Z" fill="#3F3D56"/>
<path d="M38.7112 49.7151C39.439 49.7151 40.0289 49.1497 40.0289 48.4523C40.0289 47.7548 39.439 47.1895 38.7112 47.1895C37.9835 47.1895 37.3936 47.7548 37.3936 48.4523C37.3936 49.1497 37.9835 49.7151 38.7112 49.7151Z" fill="#3F3D56"/>
<path d="M43.2635 49.7151C43.9912 49.7151 44.5812 49.1497 44.5812 48.4523C44.5812 47.7548 43.9912 47.1895 43.2635 47.1895C42.5358 47.1895 41.9458 47.7548 41.9458 48.4523C41.9458 49.1497 42.5358 49.7151 43.2635 49.7151Z" fill="#3F3D56"/>
<path d="M47.8157 49.7151C48.5435 49.7151 49.1334 49.1497 49.1334 48.4523C49.1334 47.7548 48.5435 47.1895 47.8157 47.1895C47.088 47.1895 46.498 47.7548 46.498 48.4523C46.498 49.1497 47.088 49.7151 47.8157 49.7151Z" fill="#3F3D56"/>
<path d="M88.6633 47.5018H85.4301C85.3663 47.5034 85.3058 47.5283 85.2613 47.5711C85.2168 47.614 85.1919 47.6714 85.1919 47.7312C85.1919 47.791 85.2168 47.8484 85.2613 47.8913C85.3058 47.9341 85.3663 47.959 85.4301 47.9606H88.6633C88.696 47.9615 88.7286 47.9561 88.759 47.945C88.7895 47.9338 88.8173 47.917 88.8407 47.8957C88.8641 47.8743 88.8827 47.8487 88.8955 47.8205C88.9082 47.7922 88.9147 47.7619 88.9147 47.7312C88.9147 47.7006 88.9082 47.6702 88.8955 47.642C88.8827 47.6137 88.8641 47.5881 88.8407 47.5668C88.8173 47.5454 88.7895 47.5286 88.759 47.5174C88.7286 47.5063 88.696 47.501 88.6633 47.5018Z" fill="#3F3D56"/>
<path d="M88.6633 48.3635H85.4301C85.3663 48.3651 85.3058 48.39 85.2613 48.4329C85.2168 48.4757 85.1919 48.5331 85.1919 48.5929C85.1919 48.6527 85.2168 48.7102 85.2613 48.753C85.3058 48.7959 85.3663 48.8207 85.4301 48.8224H88.6633C88.7282 48.8224 88.7905 48.7982 88.8364 48.7552C88.8823 48.7121 88.9081 48.6538 88.9081 48.5929C88.9081 48.5321 88.8823 48.4737 88.8364 48.4307C88.7905 48.3877 88.7282 48.3635 88.6633 48.3635Z" fill="#3F3D56"/>
<path d="M88.6633 49.2252H85.4301C85.3663 49.2268 85.3058 49.2517 85.2613 49.2945C85.2168 49.3374 85.1919 49.3948 85.1919 49.4546C85.1919 49.5144 85.2168 49.5718 85.2613 49.6147C85.3058 49.6575 85.3663 49.6824 85.4301 49.684H88.6633C88.696 49.6848 88.7286 49.6795 88.759 49.6684C88.7895 49.6572 88.8173 49.6404 88.8407 49.6191C88.8641 49.5977 88.8827 49.5721 88.8955 49.5439C88.9082 49.5156 88.9147 49.4853 88.9147 49.4546C88.9147 49.4239 88.9082 49.3936 88.8955 49.3653C88.8827 49.3371 88.8641 49.3115 88.8407 49.2901C88.8173 49.2688 88.7895 49.252 88.759 49.2408C88.7286 49.2297 88.696 49.2244 88.6633 49.2252Z" fill="#3F3D56"/>
<path d="M39.8633 56.1123H38.45C38.1672 56.1123 37.938 56.3272 37.938 56.5923V56.8281C37.938 57.0932 38.1672 57.3081 38.45 57.3081H39.8633C40.1461 57.3081 40.3753 57.0932 40.3753 56.8281V56.5923C40.3753 56.3272 40.1461 56.1123 39.8633 56.1123Z" fill="#E6E6E6"/>
<path d="M53.1504 56.1123H51.7371C51.4543 56.1123 51.2251 56.3272 51.2251 56.5923V56.8281C51.2251 57.0932 51.4543 57.3081 51.7371 57.3081H53.1504C53.4332 57.3081 53.6624 57.0932 53.6624 56.8281V56.5923C53.6624 56.3272 53.4332 56.1123 53.1504 56.1123Z" fill="#E6E6E6"/>
<path d="M56.9151 56.1123H55.5017C55.219 56.1123 54.9897 56.3272 54.9897 56.5923V56.8281C54.9897 57.0932 55.219 57.3081 55.5017 57.3081H56.9151C57.1978 57.3081 57.4271 57.0932 57.4271 56.8281V56.5923C57.4271 56.3272 57.1978 56.1123 56.9151 56.1123Z" fill="#E6E6E6"/>
<path d="M49.5364 56.0125H42.0642C41.7815 56.0125 41.5522 56.2274 41.5522 56.4925V56.7283C41.5522 56.9934 41.7815 57.2083 42.0642 57.2083H49.5364C49.8192 57.2083 50.0484 56.9934 50.0484 56.7283V56.4925C50.0484 56.2274 49.8192 56.0125 49.5364 56.0125Z" fill="#E6E6E6"/>
<path d="M67.2527 56.0125H59.7806C59.4978 56.0125 59.2686 56.2274 59.2686 56.4925V56.7283C59.2686 56.9934 59.4978 57.2083 59.7806 57.2083H67.2527C67.5355 57.2083 67.7647 56.9934 67.7647 56.7283V56.4925C67.7647 56.2274 67.5355 56.0125 67.2527 56.0125Z" fill="#E6E6E6"/>
<path d="M43.4068 58.8113H41.9934C41.7107 58.8113 41.4814 59.0262 41.4814 59.2913V59.5271C41.4814 59.7922 41.7107 60.0071 41.9934 60.0071H43.4068C43.6895 60.0071 43.9188 59.7922 43.9188 59.5271V59.2913C43.9188 59.0262 43.6895 58.8113 43.4068 58.8113Z" fill="#E6E6E6"/>
<path d="M56.6939 58.8113H55.2806C54.9978 58.8113 54.7686 59.0262 54.7686 59.2913V59.5271C54.7686 59.7922 54.9978 60.0071 55.2806 60.0071H56.6939C56.9767 60.0071 57.2059 59.7922 57.2059 59.5271V59.2913C57.2059 59.0262 56.9767 58.8113 56.6939 58.8113Z" fill="#E6E6E6"/>
<path d="M60.4585 58.8113H59.0452C58.7624 58.8113 58.5332 59.0262 58.5332 59.2913V59.5271C58.5332 59.7922 58.7624 60.0071 59.0452 60.0071H60.4585C60.7413 60.0071 60.9705 59.7922 60.9705 59.5271V59.2913C60.9705 59.0262 60.7413 58.8113 60.4585 58.8113Z" fill="#E6E6E6"/>
<path d="M53.0799 58.7114H45.6077C45.3249 58.7114 45.0957 58.9263 45.0957 59.1914V59.4273C45.0957 59.6924 45.3249 59.9073 45.6077 59.9073H53.0799C53.3626 59.9073 53.5919 59.6924 53.5919 59.4273V59.1914C53.5919 58.9263 53.3626 58.7114 53.0799 58.7114Z" fill="#E6E6E6"/>
<path d="M70.7962 58.7114H63.324C63.0412 58.7114 62.812 58.9263 62.812 59.1914V59.4273C62.812 59.6924 63.0412 59.9073 63.324 59.9073H70.7962C71.079 59.9073 71.3082 59.6924 71.3082 59.4273V59.1914C71.3082 58.9263 71.079 58.7114 70.7962 58.7114Z" fill="#E6E6E6"/>
<path d="M46.9497 61.51H45.5364C45.2536 61.51 45.0244 61.7249 45.0244 61.99V62.2258C45.0244 62.4909 45.2536 62.7058 45.5364 62.7058H46.9497C47.2325 62.7058 47.4617 62.4909 47.4617 62.2258V61.99C47.4617 61.7249 47.2325 61.51 46.9497 61.51Z" fill="#E6E6E6"/>
<path d="M60.2369 61.51H58.8235C58.5408 61.51 58.3115 61.7249 58.3115 61.99V62.2258C58.3115 62.4909 58.5408 62.7058 58.8235 62.7058H60.2369C60.5196 62.7058 60.7489 62.4909 60.7489 62.2258V61.99C60.7489 61.7249 60.5196 61.51 60.2369 61.51Z" fill="#E6E6E6"/>
<path d="M64.002 61.51H62.5887C62.3059 61.51 62.0767 61.7249 62.0767 61.99V62.2258C62.0767 62.4909 62.3059 62.7058 62.5887 62.7058H64.002C64.2848 62.7058 64.514 62.4909 64.514 62.2258V61.99C64.514 61.7249 64.2848 61.51 64.002 61.51Z" fill="#E6E6E6"/>
<path d="M56.6228 61.4104H49.1507C48.8679 61.4104 48.6387 61.6253 48.6387 61.8904V62.1262C48.6387 62.3913 48.8679 62.6062 49.1507 62.6062H56.6228C56.9056 62.6062 57.1348 62.3913 57.1348 62.1262V61.8904C57.1348 61.6253 56.9056 61.4104 56.6228 61.4104Z" fill="#E6E6E6"/>
<path d="M74.3392 61.4104H66.867C66.5842 61.4104 66.355 61.6253 66.355 61.8904V62.1262C66.355 62.3913 66.5842 62.6062 66.867 62.6062H74.3392C74.6219 62.6062 74.8512 62.3913 74.8512 62.1262V61.8904C74.8512 61.6253 74.6219 61.4104 74.3392 61.4104Z" fill="#E6E6E6"/>
<path d="M50.4932 64.2092H49.0799C48.7971 64.2092 48.5679 64.4241 48.5679 64.6892V64.9251C48.5679 65.1902 48.7971 65.4051 49.0799 65.4051H50.4932C50.776 65.4051 51.0052 65.1902 51.0052 64.9251V64.6892C51.0052 64.4241 50.776 64.2092 50.4932 64.2092Z" fill="#E6E6E6"/>
<path d="M63.7803 64.2092H62.367C62.0842 64.2092 61.855 64.4241 61.855 64.6892V64.9251C61.855 65.1902 62.0842 65.4051 62.367 65.4051H63.7803C64.0631 65.4051 64.2923 65.1902 64.2923 64.9251V64.6892C64.2923 64.4241 64.0631 64.2092 63.7803 64.2092Z" fill="#E6E6E6"/>
<path d="M67.545 64.2092H66.1316C65.8489 64.2092 65.6196 64.4241 65.6196 64.6892V64.9251C65.6196 65.1902 65.8489 65.4051 66.1316 65.4051H67.545C67.8277 65.4051 68.057 65.1902 68.057 64.9251V64.6892C68.057 64.4241 67.8277 64.2092 67.545 64.2092Z" fill="#E6E6E6"/>
<path d="M60.1663 64.1094H52.6941C52.4114 64.1094 52.1821 64.3243 52.1821 64.5894V64.8252C52.1821 65.0903 52.4114 65.3052 52.6941 65.3052H60.1663C60.4491 65.3052 60.6783 65.0903 60.6783 64.8252V64.5894C60.6783 64.3243 60.4491 64.1094 60.1663 64.1094Z" fill="#E6E6E6"/>
<path d="M53.1504 74.9414H51.7371C51.4543 74.9414 51.2251 75.1563 51.2251 75.4214V75.6572C51.2251 75.9223 51.4543 76.1372 51.7371 76.1372H53.1504C53.4332 76.1372 53.6624 75.9223 53.6624 75.6572V75.4214C53.6624 75.1563 53.4332 74.9414 53.1504 74.9414Z" fill="#E6E6E6"/>
<path d="M56.9151 74.9414H55.5017C55.219 74.9414 54.9897 75.1563 54.9897 75.4214V75.6572C54.9897 75.9223 55.219 76.1372 55.5017 76.1372H56.9151C57.1978 76.1372 57.4271 75.9223 57.4271 75.6572V75.4214C57.4271 75.1563 57.1978 74.9414 56.9151 74.9414Z" fill="#E6E6E6"/>
<path d="M67.2527 75.041H59.7806C59.4978 75.041 59.2686 75.2559 59.2686 75.521V75.7569C59.2686 76.0219 59.4978 76.2369 59.7806 76.2369H67.2527C67.5355 76.2369 67.7647 76.0219 67.7647 75.7569V75.521C67.7647 75.2559 67.5355 75.041 67.2527 75.041Z" fill="#E6E6E6"/>
<path d="M39.8633 74.9414H38.45C38.1672 74.9414 37.938 75.1563 37.938 75.4214V75.6572C37.938 75.9223 38.1672 76.1372 38.45 76.1372H39.8633C40.1461 76.1372 40.3753 75.9223 40.3753 75.6572V75.4214C40.3753 75.1563 40.1461 74.9414 39.8633 74.9414Z" fill="#E6E6E6"/>
<path d="M49.5364 75.041H42.0642C41.7815 75.041 41.5522 75.2559 41.5522 75.521V75.7569C41.5522 76.0219 41.7815 76.2369 42.0642 76.2369H49.5364C49.8192 76.2369 50.0484 76.0219 50.0484 75.7569V75.521C50.0484 75.2559 49.8192 75.041 49.5364 75.041Z" fill="#E6E6E6"/>
<path d="M43.4068 72.2424H41.9934C41.7107 72.2424 41.4814 72.4573 41.4814 72.7224V72.9583C41.4814 73.2234 41.7107 73.4383 41.9934 73.4383H43.4068C43.6895 73.4383 43.9188 73.2234 43.9188 72.9583V72.7224C43.9188 72.4573 43.6895 72.2424 43.4068 72.2424Z" fill="#E6E6E6"/>
<path d="M56.6939 72.2424H55.2806C54.9978 72.2424 54.7686 72.4573 54.7686 72.7224V72.9583C54.7686 73.2234 54.9978 73.4383 55.2806 73.4383H56.6939C56.9767 73.4383 57.2059 73.2234 57.2059 72.9583V72.7224C57.2059 72.4573 56.9767 72.2424 56.6939 72.2424Z" fill="#E6E6E6"/>
<path d="M60.4585 72.2424H59.0452C58.7624 72.2424 58.5332 72.4573 58.5332 72.7224V72.9583C58.5332 73.2234 58.7624 73.4383 59.0452 73.4383H60.4585C60.7413 73.4383 60.9705 73.2234 60.9705 72.9583V72.7224C60.9705 72.4573 60.7413 72.2424 60.4585 72.2424Z" fill="#E6E6E6"/>
<path d="M53.0799 72.342H45.6077C45.3249 72.342 45.0957 72.5569 45.0957 72.822V73.0579C45.0957 73.323 45.3249 73.5379 45.6077 73.5379H53.0799C53.3626 73.5379 53.5919 73.323 53.5919 73.0579V72.822C53.5919 72.5569 53.3626 72.342 53.0799 72.342Z" fill="#E6E6E6"/>
<path d="M46.9497 69.5432H45.5364C45.2536 69.5432 45.0244 69.7581 45.0244 70.0232V70.259C45.0244 70.5241 45.2536 70.739 45.5364 70.739H46.9497C47.2325 70.739 47.4617 70.5241 47.4617 70.259V70.0232C47.4617 69.7581 47.2325 69.5432 46.9497 69.5432Z" fill="#E6E6E6"/>
<path d="M60.2369 69.5432H58.8235C58.5408 69.5432 58.3115 69.7581 58.3115 70.0232V70.259C58.3115 70.5241 58.5408 70.739 58.8235 70.739H60.2369C60.5196 70.739 60.7489 70.5241 60.7489 70.259V70.0232C60.7489 69.7581 60.5196 69.5432 60.2369 69.5432Z" fill="#E6E6E6"/>
<path d="M64.002 69.5432H62.5887C62.3059 69.5432 62.0767 69.7581 62.0767 70.0232V70.259C62.0767 70.5241 62.3059 70.739 62.5887 70.739H64.002C64.2848 70.739 64.514 70.5241 64.514 70.259V70.0232C64.514 69.7581 64.2848 69.5432 64.002 69.5432Z" fill="#E6E6E6"/>
<path d="M56.6228 69.6431H49.1507C48.8679 69.6431 48.6387 69.858 48.6387 70.1231V70.3589C48.6387 70.624 48.8679 70.8389 49.1507 70.8389H56.6228C56.9056 70.8389 57.1348 70.624 57.1348 70.3589V70.1231C57.1348 69.858 56.9056 69.6431 56.6228 69.6431Z" fill="#E6E6E6"/>
<path d="M50.4932 66.8445H49.0799C48.7971 66.8445 48.5679 67.0594 48.5679 67.3245V67.5603C48.5679 67.8254 48.7971 68.0403 49.0799 68.0403H50.4932C50.776 68.0403 51.0052 67.8254 51.0052 67.5603V67.3245C51.0052 67.0594 50.776 66.8445 50.4932 66.8445Z" fill="#E6E6E6"/>
<path d="M63.7803 66.8445H62.367C62.0842 66.8445 61.855 67.0594 61.855 67.3245V67.5603C61.855 67.8254 62.0842 68.0403 62.367 68.0403H63.7803C64.0631 68.0403 64.2923 67.8254 64.2923 67.5603V67.3245C64.2923 67.0594 64.0631 66.8445 63.7803 66.8445Z" fill="#E6E6E6"/>
<path d="M67.545 66.8445H66.1316C65.8489 66.8445 65.6196 67.0594 65.6196 67.3245V67.5603C65.6196 67.8254 65.8489 68.0403 66.1316 68.0403H67.545C67.8277 68.0403 68.057 67.8254 68.057 67.5603V67.3245C68.057 67.0594 67.8277 66.8445 67.545 66.8445Z" fill="#E6E6E6"/>
<path d="M60.1663 66.9441H52.6941C52.4114 66.9441 52.1821 67.159 52.1821 67.4241V67.6599C52.1821 67.925 52.4114 68.1399 52.6941 68.1399H60.1663C60.4491 68.1399 60.6783 67.925 60.6783 67.6599V67.4241C60.6783 67.159 60.4491 66.9441 60.1663 66.9441Z" fill="#E6E6E6"/>
<path d="M59.1338 69.4917C59.1338 69.4917 62.7983 74.3144 61.4895 75.6202C60.1807 76.9261 71.3082 76.9586 71.3082 76.9586C71.3082 76.9586 69.6371 69.9429 70.1286 68.3284L59.1338 69.4917Z" fill="#FFB9B9"/>
<path d="M92.0824 113.932C91.9473 113.996 91.81 114.06 91.6749 114.123C88.1759 115.763 85.3768 116.695 81.548 117.716C81.2246 114.333 80.9124 108.384 80.609 104.697C80.5293 103.74 80.449 102.937 80.372 102.37C80.3522 102.068 80.2864 101.771 80.1764 101.487L80.1898 102.37L80.223 104.697L80.4157 118.007C75.6528 119.188 70.7602 119.85 65.8353 119.977C65.5784 119.983 65.326 119.988 65.0824 119.992C64.996 119.994 64.9119 119.996 64.8276 119.996C64.5508 119.998 64.2765 120 63.9994 120C58.8094 120.004 53.6383 119.416 48.5996 118.25C48.708 114.901 48.8166 109.02 48.9206 104.697C48.9428 103.852 48.9628 103.065 48.9848 102.37C49.0269 100.883 49.0712 99.8118 49.1133 99.453C49.076 99.5166 49.047 99.5842 49.0269 99.6543C48.8219 100.55 48.682 101.457 48.6084 102.37C48.5309 103.065 48.4534 103.852 48.3759 104.697C47.964 109.188 47.5345 115.294 47.0915 117.883C44.4552 117.208 41.8684 116.374 39.3473 115.385C38.0189 114.866 36.714 114.306 35.4326 113.705C35.6762 112.211 35.9304 110.535 36.1923 108.797C36.396 107.45 36.6063 106.065 36.8212 104.697C37.1533 102.584 37.4945 100.512 37.8399 98.687C38.3448 96.0213 38.863 93.8786 39.3768 92.8946C39.8641 91.9603 40.3512 91.0386 40.8228 90.1563C40.9868 89.847 41.1507 89.5418 41.3101 89.245C41.3478 89.1743 41.3855 89.1058 41.423 89.0373C41.7619 88.4125 42.0897 87.8145 42.4019 87.254C42.6698 86.7743 42.9245 86.3218 43.1663 85.904C43.751 84.8908 44.247 84.0831 44.6147 83.5724C46.1516 81.3869 48.4395 79.7599 51.0988 78.9614L51.1652 78.9448L51.2118 78.9634L55.7405 77.6596L56.4027 77.4686L56.8472 77.3399L58.415 76.2209L59.2683 75.6126L60.0683 75.0416L61.6317 73.9268L71.3114 74.4853L73.1958 78.7393L77.4166 80.1863L77.4897 80.1551L77.5539 80.1303L77.6204 80.1469C80.2792 80.9461 82.5669 82.573 84.1044 84.758C84.3126 85.0506 84.5651 85.4368 84.8511 85.904C85.0947 86.3005 85.3604 86.7531 85.6483 87.254C86.0572 87.9661 86.5053 88.7695 86.9793 89.6395C87.0833 89.8305 87.1896 90.0256 87.2959 90.2228C87.493 90.5881 87.6931 90.9611 87.8961 91.3418C88.3677 92.2241 88.855 93.146 89.3421 94.0823C89.7651 94.8941 90.1924 96.5633 90.6132 98.6872C90.961 100.452 91.3066 102.532 91.6408 104.698C92.0792 107.505 91.612 110.866 92.0084 113.448C92.0316 113.612 92.058 113.772 92.0824 113.932Z" fill="#3F3D56"/>
<path d="M64.1364 70.5313C70.354 70.5313 75.3943 65.806 75.3943 59.977C75.3943 54.148 70.354 49.4226 64.1364 49.4226C57.9188 49.4226 52.8784 54.148 52.8784 59.977C52.8784 65.806 57.9188 70.5313 64.1364 70.5313Z" fill="#FFB9B9"/>
<path d="M82.7018 45.9904C82.4794 45.5032 82.1833 45.0485 81.8227 44.6404C80.113 42.6826 77.0039 41.8211 73.8128 44.1379C73.1985 44.0094 72.5583 44.044 71.9639 44.2379C71.6832 44.3332 71.4201 44.4691 71.1843 44.6407C70.701 44.9942 70.324 45.4594 70.0903 45.9907C69.9653 46.2712 69.8833 46.5669 69.8467 46.8689C69.0579 46.4847 68.223 46.1899 67.3598 45.9907C65.2418 45.4968 63.027 45.4968 60.9089 45.9907C60.2302 46.1517 59.5766 46.3946 58.9646 46.7132C57.9281 47.2737 57.3324 47.9817 57.2261 48.7686C55.7313 48.8474 54.1767 49.5852 53.0185 50.7927C52.8878 50.9277 52.7616 51.0689 52.6442 51.2142C51.6702 52.4089 51.1468 53.8729 51.1559 55.3766V55.6403H51.4371C52.2077 55.6395 52.9711 55.7791 53.6849 56.0513C54.1475 56.2254 54.5855 56.452 54.9893 56.7259C55.2536 56.9016 55.5032 57.096 55.736 57.3073C56.2754 57.7968 56.7324 58.3604 57.0914 58.9786C58.0114 60.5408 58.3304 62.3522 57.9948 64.1088C57.9179 64.5154 57.8053 64.9154 57.6583 65.3046C57.449 65.8598 57.1733 66.3909 56.8366 66.888C56.8233 66.9066 56.8122 66.9253 56.7989 66.944C56.6505 67.1661 56.5088 67.3925 56.376 67.6208C56.2762 67.791 56.1833 67.9655 56.0969 68.1398C55.8445 68.6252 55.6313 69.1277 55.4592 69.643C55.1509 70.5543 54.9693 71.4991 54.9187 72.454C54.9033 72.7073 54.8988 72.9605 54.9077 73.2138C54.9208 73.8667 54.9972 74.5172 55.1358 75.1571C55.1557 75.2443 55.1756 75.3295 55.1955 75.4166L55.3571 76.079L55.7402 77.659L56.006 78.7468L56.2519 79.7558L56.6151 79.268C56.7395 79.1013 57.0513 78.5912 57.4698 77.868C57.7466 77.3967 58.0677 76.8347 58.4154 76.2195C58.9004 75.3578 59.432 74.3966 59.9523 73.4375C60.1626 73.0493 60.3708 72.6631 60.5724 72.2853C60.9534 71.5686 61.3121 70.8776 61.6199 70.2631C61.9033 69.6965 62.1447 69.194 62.3241 68.7911C62.3793 69.0548 62.4259 69.3226 62.4613 69.5925C62.5011 69.8665 62.5299 70.1446 62.5454 70.423C62.5498 70.4645 62.552 70.5081 62.5543 70.5496L62.5632 70.72L62.5653 70.77L62.8 70.799C64.1538 70.9349 65.5187 70.9446 66.8746 70.828H66.8768C68.6731 70.7012 70.4353 70.3008 72.0942 69.6425C73.0364 69.2593 73.9162 68.7532 74.7075 68.1393C75.077 67.8524 75.4217 67.5386 75.7386 67.201C75.8183 67.1158 75.8958 67.0308 75.9712 66.9435C76.4094 66.4385 76.7847 65.8882 77.0896 65.3033C77.2937 64.9173 77.467 64.5176 77.6078 64.1075C78.4581 61.6929 78.4094 58.6804 77.4617 55.1013C77.7177 55.055 77.9629 54.9664 78.1858 54.8396C78.881 54.4473 79.3639 53.6686 79.5145 52.7178L79.7536 52.7779C80.6014 52.4077 81.3567 51.8744 81.9703 51.2126C82.0918 51.0778 82.2056 50.9371 82.3113 50.7911C83.395 49.2974 83.4039 47.5039 82.7018 45.9904Z" fill="#090814"/>
<path opacity="0.2" d="M45.6904 98.6776L47.5713 91.8689L49.2328 97.7434L45.6904 98.6776Z" fill="black"/>
<path d="M95.7628 94.2416C95.0895 102.936 95.7871 106.765 92.0712 113.934C88.6902 115.485 85.1685 116.751 81.5478 117.717C81.1713 117.817 80.7941 117.914 80.4163 118.008C75.6534 119.189 70.7607 119.85 65.8358 119.978C65.5789 119.984 65.3265 119.988 65.0829 119.992C64.9965 119.995 64.9124 119.997 64.8282 119.997C64.5514 119.999 64.2771 120.001 63.9999 120.001C58.81 120.004 53.6388 119.417 48.6001 118.251C48.0952 118.134 47.5925 118.012 47.092 117.883C44.4557 117.209 41.8689 116.374 39.3478 115.386C38.0191 114.867 36.714 114.307 35.4324 113.706C35.1423 113.569 34.8522 113.432 34.5665 113.291C33.0982 110.87 32.2634 107.926 32.2456 104.389C33.2623 98.2921 93.5173 88.9849 95.7628 94.2416Z" fill="#090814"/>
<path opacity="0.2" d="M95.7613 95.7306C95.7956 95.1923 95.8342 94.6363 95.879 94.0573C93.6335 88.8006 33.3783 98.1073 32.3618 104.203C32.3647 104.762 32.3901 105.305 32.4329 105.834C34.8946 99.8178 92.1378 90.972 95.7613 95.7306Z" fill="black"/>
<path d="M36.1183 71.0349C36.1329 70.8466 36.1044 70.6576 36.0347 70.4806C35.9649 70.3036 35.8555 70.1426 35.7138 70.0085C35.5721 69.8744 35.4014 69.7704 35.2132 69.7034C35.025 69.6363 34.8237 69.6078 34.6228 69.6199C34.5479 69.6226 34.4735 69.6313 34.4002 69.646L25.5949 71.5109C25.3981 71.5556 25.2135 71.6385 25.053 71.7542C24.8924 71.8699 24.7595 72.0158 24.6628 72.1825C24.5337 72.1871 24.4054 72.2046 24.2802 72.2347C24.003 72.29 23.7402 72.3963 23.5072 72.5475C23.2742 72.6987 23.0755 72.8919 22.9228 73.1157C22.77 73.3395 22.6663 73.5895 22.6174 73.8512C22.5686 74.1129 22.5757 74.3812 22.6384 74.6403C22.7011 74.8994 22.818 75.1443 22.9825 75.3607C23.1469 75.577 23.3556 75.7606 23.5964 75.9008C23.8372 76.041 24.1052 76.1349 24.3851 76.1771C24.6649 76.2193 24.9508 76.209 25.2264 76.1467C25.5413 76.0782 25.836 75.9446 26.0888 75.7556L29.0726 83.6326C29.2216 83.8794 29.4519 84.0744 29.7289 84.1884C30.006 84.3025 30.3149 84.3293 30.6096 84.2651L36.3341 83.0522C36.6265 82.988 36.8897 82.8386 37.0859 82.6254C37.2821 82.4122 37.4011 82.1462 37.426 81.8656L36.1183 71.0349ZM25.0941 75.5862C24.8982 75.6282 24.6953 75.6336 24.4972 75.602C24.2991 75.5705 24.1095 75.5027 23.9393 75.4025C23.5956 75.2001 23.3518 74.878 23.2614 74.5071C23.2166 74.3234 23.2109 74.1332 23.2445 73.9475C23.2781 73.7617 23.3505 73.584 23.4574 73.4245C23.5643 73.2649 23.7036 73.1267 23.8675 73.0176C24.0314 72.9086 24.2166 72.8308 24.4125 72.7889C24.4402 72.7824 24.4681 72.7889 24.496 72.7824C24.4939 73.02 24.5587 73.2539 24.6838 73.4606L25.7757 75.2467C25.5857 75.416 25.35 75.5333 25.0941 75.5862Z" fill="#090814"/>
<path d="M34.6226 69.6199C34.7061 70.6632 32.8004 71.863 30.2477 72.339C27.9037 72.789 25.8032 72.4759 25.2119 71.6544C25.3307 71.5882 25.4598 71.5398 25.5945 71.5109L34.3998 69.646C34.4731 69.6313 34.5477 69.6226 34.6226 69.6199Z" fill="#3F3D56"/>
<path d="M28.5331 96.1051L33.4789 93.7867L29.3573 83.3533L28.2711 78.092C28.1299 77.4085 27.7999 76.7716 27.314 76.2451C26.8281 75.7186 26.2033 75.3209 25.5021 75.0917C24.8009 74.8624 24.0478 74.8098 23.318 74.9389C22.5883 75.068 21.9075 75.3744 21.3436 75.8275C20.5082 76.499 19.9837 77.4486 19.8809 78.4758C19.7781 79.503 20.1049 80.5275 20.7925 81.333L24.8245 86.058L28.5331 96.1051Z" fill="#FFB9B9"/>
<path d="M33.4786 91.8545L26.8843 94.9457L31.8887 109.646C32.2481 110.701 32.8923 111.652 33.7589 112.406C34.6256 113.159 35.6852 113.69 36.835 113.947C38.2528 114.263 39.7413 114.148 41.0846 113.619C42.428 113.089 43.5565 112.172 44.3065 111L57.5765 89.6752C58.517 88.2058 58.8073 86.4499 58.3854 84.7825C57.9635 83.1151 56.863 81.6685 55.3188 80.7516C54.4882 80.2585 53.5563 79.9349 52.5835 79.8017C51.6108 79.6686 50.619 79.729 49.6728 79.979C48.7266 80.229 47.8471 80.6629 47.0916 81.2526C46.3361 81.8423 45.7215 82.5746 45.2878 83.4017L37.1879 99.5822L33.4786 91.8545Z" fill="#3F3D56"/>
<path d="M31.439 78.5691C31.4269 78.569 31.4149 78.5671 31.4034 78.5634L29.9634 78.0987C29.946 78.0931 29.9304 78.0836 29.9179 78.0709C29.9055 78.0582 29.8966 78.0428 29.8921 78.0261C29.8875 78.0094 29.8875 77.9919 29.8921 77.9752C29.8966 77.9585 29.9055 77.9431 29.9179 77.9304L30.9887 76.8374C30.9983 76.8267 31.0102 76.8179 31.0235 76.8116C31.0368 76.8053 31.0514 76.8016 31.0663 76.8007C31.0812 76.7999 31.0961 76.8018 31.1102 76.8065C31.1243 76.8111 31.1372 76.8184 31.1482 76.8279C31.1592 76.8374 31.1681 76.8488 31.1742 76.8616C31.1804 76.8743 31.1837 76.8881 31.184 76.9021C31.1844 76.9161 31.1817 76.93 31.1761 76.943C31.1706 76.956 31.1623 76.9678 31.1517 76.9777L30.1953 77.9539L31.4753 78.367C31.5 78.375 31.5209 78.391 31.5343 78.412C31.5477 78.4331 31.5527 78.4579 31.5485 78.4821C31.5442 78.5063 31.5309 78.5283 31.511 78.5442C31.4911 78.5601 31.4659 78.5689 31.4397 78.5691H31.439Z" fill="#6C63FF"/>
<path d="M33.4123 78.1904C33.3903 78.1904 33.3688 78.1842 33.3505 78.1727C33.3323 78.1611 33.3181 78.1447 33.3098 78.1256C33.3016 78.1064 33.2996 78.0854 33.3041 78.0652C33.3087 78.045 33.3195 78.0265 33.3353 78.0121L34.3085 77.1299L33.0011 76.6249C32.974 76.6145 32.9524 76.5943 32.9411 76.5689C32.9298 76.5435 32.9298 76.515 32.941 76.4895C32.9521 76.4641 32.9736 76.4439 33.0007 76.4333C33.0278 76.4227 33.0583 76.4226 33.0854 76.4331L34.549 76.9986C34.5661 77.0051 34.5812 77.0154 34.5929 77.0288C34.6046 77.0421 34.6126 77.0579 34.6161 77.0748C34.6196 77.0918 34.6186 77.1093 34.6131 77.1257C34.6076 77.1422 34.5978 77.1571 34.5846 77.1691L33.4898 78.1613C33.4692 78.18 33.4416 78.1905 33.4129 78.1904H33.4123Z" fill="#6C63FF"/>
<path d="M31.7411 79.2044C31.73 79.2044 31.719 79.2028 31.7085 79.1997C31.6946 79.1957 31.6817 79.1892 31.6705 79.1805C31.6593 79.1718 31.65 79.1611 31.6432 79.1491C31.6364 79.137 31.6322 79.1239 31.6309 79.1103C31.6295 79.0967 31.631 79.083 31.6353 79.07L32.6571 75.9558C32.6614 75.9428 32.6684 75.9307 32.6777 75.9202C32.687 75.9097 32.6984 75.901 32.7112 75.8946C32.7241 75.8882 32.7382 75.8843 32.7526 75.883C32.7671 75.8817 32.7817 75.8832 32.7956 75.8872C32.8095 75.8912 32.8225 75.8977 32.8337 75.9064C32.8449 75.9151 32.8541 75.9258 32.8609 75.9379C32.8677 75.9499 32.8719 75.9631 32.8733 75.9767C32.8747 75.9903 32.8732 76.004 32.8689 76.017L31.847 79.1312C31.84 79.1524 31.826 79.171 31.8069 79.1841C31.7878 79.1973 31.7647 79.2044 31.7411 79.2044Z" fill="#6C63FF"/>
</g>
<defs>
<clipPath id="clip0_53_239">
<rect width="128" height="120" fill="white"/>
</clipPath>
</defs>
</svg>
