<svg width="226" height="44" viewBox="0 0 226 44" fill="none" xmlns="http://www.w3.org/2000/svg">
<path d="M204.197 24.192L215.059 14.472C215.688 13.92 216.1 13.422 216.297 12.978C216.493 12.534 216.506 12.15 216.336 11.826C216.179 11.502 215.851 11.256 215.354 11.088L214.588 10.872C214.3 10.764 214.09 10.638 213.959 10.494C213.828 10.338 213.763 10.14 213.763 9.9C213.763 9.624 213.867 9.408 214.077 9.252C214.286 9.084 214.607 9 215.039 9H223.309C223.754 9 224.082 9.084 224.291 9.252C224.501 9.408 224.605 9.624 224.605 9.9C224.605 10.152 224.52 10.344 224.35 10.476C224.193 10.608 223.879 10.758 223.407 10.926C223.185 10.998 222.955 11.094 222.72 11.214C222.484 11.334 222.189 11.52 221.836 11.772C221.482 12.024 221.017 12.384 220.441 12.852C219.878 13.32 219.138 13.938 218.222 14.706L205.139 26.046L204.197 24.192ZM208.459 21.258L214.195 16.812L223.329 30.816C223.63 31.284 223.911 31.614 224.173 31.806C224.448 31.998 224.756 32.13 225.097 32.202C225.437 32.334 225.673 32.496 225.804 32.688C225.935 32.868 226 33.072 226 33.3C226 33.576 225.895 33.798 225.686 33.966C225.476 34.122 225.155 34.2 224.723 34.2H214.352C213.92 34.2 213.599 34.116 213.389 33.948C213.18 33.78 213.075 33.558 213.075 33.282C213.075 33.042 213.134 32.844 213.252 32.688C213.383 32.52 213.56 32.406 213.782 32.346L214.607 32.166C214.856 32.094 214.987 31.956 215 31.752C215.013 31.536 214.876 31.212 214.588 30.78L208.459 21.258ZM206.377 31.032C206.377 31.296 206.442 31.512 206.573 31.68C206.717 31.836 206.933 31.962 207.222 32.058L208.066 32.292C208.394 32.424 208.616 32.568 208.734 32.724C208.852 32.868 208.911 33.06 208.911 33.3C208.911 33.564 208.806 33.78 208.597 33.948C208.4 34.116 208.079 34.2 207.634 34.2H197.341C196.909 34.2 196.588 34.116 196.379 33.948C196.182 33.78 196.084 33.564 196.084 33.3C196.084 32.808 196.359 32.472 196.909 32.292L197.911 32.058C198.225 31.962 198.461 31.836 198.618 31.68C198.788 31.512 198.873 31.296 198.873 31.032V12.168C198.873 11.904 198.788 11.694 198.618 11.538C198.461 11.37 198.225 11.238 197.911 11.142L196.909 10.908C196.359 10.728 196.084 10.392 196.084 9.9C196.084 9.624 196.182 9.408 196.379 9.252C196.588 9.084 196.909 9 197.341 9H207.909C208.341 9 208.662 9.084 208.872 9.252C209.081 9.408 209.186 9.624 209.186 9.9C209.186 10.392 208.904 10.728 208.341 10.908L207.359 11.142C207.045 11.238 206.802 11.37 206.632 11.538C206.462 11.694 206.377 11.904 206.377 12.168V31.032Z" fill="#4380F5"/>
<path d="M174.782 33.3C174.782 33.564 174.677 33.78 174.468 33.948C174.258 34.104 173.937 34.188 173.505 34.2H167.023C166.591 34.188 166.27 34.104 166.06 33.948C165.851 33.78 165.746 33.564 165.746 33.3C165.746 32.832 166.047 32.49 166.65 32.274L167.337 32.058C167.94 31.83 168.372 31.56 168.634 31.248C168.909 30.936 169.046 30.45 169.046 29.79V14.85C169.046 14.466 169 14.166 168.909 13.95C168.83 13.722 168.627 13.416 168.3 13.032L166.689 11.016C166.453 10.728 166.29 10.5 166.198 10.332C166.106 10.164 166.06 9.996 166.06 9.828C166.06 9.564 166.159 9.36 166.355 9.216C166.565 9.072 166.833 9 167.16 9H172.994C173.4 9 173.734 9.066 173.996 9.198C174.271 9.33 174.546 9.57 174.821 9.918L188.65 27.882L187.687 30.258V13.41C187.687 12.774 187.563 12.3 187.314 11.988C187.078 11.664 186.633 11.382 185.978 11.142L185.252 10.926C184.649 10.686 184.348 10.344 184.348 9.9C184.348 9.624 184.453 9.408 184.662 9.252C184.872 9.084 185.193 9 185.625 9H192.107C192.539 9 192.86 9.084 193.069 9.252C193.279 9.408 193.384 9.624 193.384 9.9C193.384 10.356 193.082 10.698 192.48 10.926L191.793 11.142C191.19 11.358 190.752 11.628 190.477 11.952C190.215 12.264 190.084 12.75 190.084 13.41V28.584C190.084 28.98 190.123 29.328 190.202 29.628C190.28 29.916 190.411 30.186 190.594 30.438L191.852 32.022C192.127 32.358 192.29 32.616 192.343 32.796C192.408 32.964 192.441 33.138 192.441 33.318C192.441 33.582 192.336 33.798 192.127 33.966C191.93 34.122 191.655 34.2 191.302 34.2H184.76C184.093 34.2 183.759 33.948 183.759 33.444C183.759 33.264 183.713 33.084 183.621 32.904C183.543 32.724 183.32 32.406 182.953 31.95L169.282 14.22L171.443 13.014V29.79C171.443 30.426 171.567 30.9 171.816 31.212C172.065 31.524 172.51 31.806 173.151 32.058L173.878 32.274C174.481 32.502 174.782 32.844 174.782 33.3Z" fill="#4380F5"/>
<path d="M141.739 23.814H153.034L153.093 25.848H141.641L141.739 23.814ZM144.313 33.3C144.313 33.564 144.208 33.78 143.998 33.948C143.802 34.116 143.488 34.2 143.055 34.2H136.73C136.298 34.2 135.977 34.122 135.768 33.966C135.558 33.798 135.454 33.576 135.454 33.3C135.454 33.096 135.513 32.928 135.63 32.796C135.748 32.652 135.938 32.514 136.2 32.382L136.73 32.148C137.163 31.944 137.51 31.674 137.771 31.338C138.033 30.99 138.302 30.402 138.577 29.574L144.273 12.978C144.483 12.366 144.542 11.916 144.45 11.628C144.371 11.34 144.103 11.112 143.645 10.944C143.304 10.8 143.062 10.65 142.918 10.494C142.787 10.326 142.721 10.128 142.721 9.9C142.721 9.612 142.826 9.39 143.036 9.234C143.245 9.078 143.566 9 143.998 9H154.861C155.293 9 155.614 9.078 155.823 9.234C156.033 9.39 156.138 9.612 156.138 9.9C156.138 10.14 156.066 10.344 155.922 10.512C155.777 10.668 155.555 10.8 155.254 10.908C154.926 11.016 154.73 11.172 154.664 11.376C154.599 11.58 154.645 11.91 154.802 12.366L161.068 30.15C161.291 30.786 161.513 31.26 161.736 31.572C161.958 31.872 162.26 32.088 162.639 32.22C163.032 32.388 163.288 32.55 163.405 32.706C163.536 32.85 163.602 33.048 163.602 33.3C163.602 33.564 163.497 33.78 163.288 33.948C163.078 34.116 162.757 34.2 162.325 34.2H152.739C152.294 34.2 151.967 34.116 151.757 33.948C151.561 33.78 151.463 33.564 151.463 33.3C151.463 33.072 151.528 32.886 151.659 32.742C151.803 32.598 152.019 32.478 152.307 32.382L153.172 32.148C153.512 32.028 153.669 31.86 153.643 31.644C153.63 31.416 153.545 31.056 153.388 30.564L146.886 11.628L147.613 11.07L141.386 29.25C141.189 29.802 141.104 30.258 141.13 30.618C141.157 30.966 141.301 31.26 141.563 31.5C141.824 31.74 142.211 31.962 142.721 32.166L143.488 32.4C143.749 32.508 143.952 32.628 144.096 32.76C144.241 32.892 144.313 33.072 144.313 33.3Z" fill="#4380F5"/>
<path d="M134.201 28.152C134.201 29.952 133.356 31.41 131.667 32.526C129.977 33.642 127.424 34.2 124.006 34.2H109.293C108.861 34.2 108.54 34.116 108.331 33.948C108.121 33.78 108.017 33.564 108.017 33.3C108.017 32.808 108.298 32.472 108.861 32.292L109.843 32.058C110.171 31.962 110.413 31.83 110.57 31.662C110.74 31.494 110.826 31.266 110.826 30.978V12.168C110.826 11.904 110.747 11.694 110.59 11.538C110.433 11.37 110.184 11.238 109.843 11.142L108.861 10.908C108.298 10.728 108.017 10.392 108.017 9.9C108.017 9.624 108.121 9.408 108.331 9.252C108.54 9.084 108.861 9 109.293 9H120.647C123.161 9 125.309 9.312 127.09 9.936C128.884 10.548 130.252 11.406 131.195 12.51C132.151 13.602 132.629 14.886 132.629 16.362C132.629 17.562 132.243 18.63 131.47 19.566C130.711 20.502 129.598 21.24 128.131 21.78C126.664 22.308 124.877 22.572 122.768 22.572L123.77 21.996C125.852 21.996 127.673 22.26 129.231 22.788C130.802 23.304 132.02 24.024 132.885 24.948C133.762 25.872 134.201 26.94 134.201 28.152ZM121.334 23.346H116.424V21.78H120.726C121.786 21.78 122.677 21.594 123.397 21.222C124.13 20.85 124.68 20.292 125.047 19.548C125.414 18.792 125.597 17.856 125.597 16.74C125.597 15.528 125.348 14.478 124.851 13.59C124.366 12.702 123.665 12.012 122.749 11.52C121.845 11.028 120.758 10.782 119.488 10.782H118.309V30.618C118.309 31.23 118.506 31.686 118.899 31.986C119.292 32.274 119.861 32.418 120.608 32.418H122.258C123.214 32.418 124.026 32.238 124.693 31.878C125.374 31.518 125.892 31.008 126.245 30.348C126.599 29.676 126.776 28.878 126.776 27.954C126.776 26.526 126.304 25.404 125.361 24.588C124.418 23.76 123.076 23.346 121.334 23.346Z" fill="#4380F5"/>
<path d="M6.354 9.8H19.278C19.746 9.8 20.142 9.752 20.466 9.656C20.79 9.548 21.078 9.446 21.33 9.35C21.594 9.254 21.852 9.206 22.104 9.206C22.536 9.206 22.86 9.314 23.076 9.53C23.292 9.734 23.466 10.094 23.598 10.61L24.768 16.73C24.852 17.102 24.828 17.402 24.696 17.63C24.564 17.858 24.342 18.002 24.03 18.062C23.742 18.122 23.484 18.098 23.256 17.99C23.04 17.882 22.854 17.672 22.698 17.36C21.99 15.86 21.378 14.72 20.862 13.94C20.358 13.148 19.866 12.602 19.386 12.302C18.918 12.002 18.39 11.852 17.802 11.852H16.272V31.832C16.272 32.096 16.344 32.312 16.488 32.48C16.644 32.636 16.866 32.762 17.154 32.858L18.054 33.092C18.57 33.272 18.828 33.608 18.828 34.1C18.828 34.7 18.438 35 17.658 35H7.992C7.584 35 7.284 34.916 7.092 34.748C6.912 34.58 6.822 34.364 6.822 34.1C6.822 33.608 7.074 33.272 7.578 33.092L8.496 32.858C8.784 32.762 9 32.636 9.144 32.48C9.3 32.312 9.378 32.096 9.378 31.832V11.852H7.848C7.272 11.852 6.744 12.008 6.264 12.32C5.796 12.62 5.304 13.166 4.788 13.958C4.272 14.738 3.66 15.872 2.952 17.36C2.796 17.672 2.604 17.882 2.376 17.99C2.16 18.098 1.908 18.122 1.62 18.062C1.308 18.002 1.086 17.858 0.954 17.63C0.834 17.402 0.804 17.102 0.864 16.73L2.034 10.61C2.166 10.094 2.34 9.734 2.556 9.53C2.784 9.314 3.114 9.206 3.546 9.206C3.798 9.206 4.05 9.254 4.302 9.35C4.554 9.446 4.842 9.548 5.166 9.656C5.49 9.752 5.886 9.8 6.354 9.8ZM36.7701 31.832C36.7701 32.096 36.8421 32.312 36.9861 32.48C37.1421 32.636 37.3701 32.762 37.6701 32.858L38.5701 33.092C39.0741 33.272 39.3261 33.608 39.3261 34.1C39.3261 34.364 39.2301 34.58 39.0381 34.748C38.8581 34.916 38.5701 35 38.1741 35H28.4901C28.0941 35 27.8001 34.916 27.6081 34.748C27.4161 34.58 27.3201 34.364 27.3201 34.1C27.3201 33.608 27.5781 33.272 28.0941 33.092L28.9941 32.858C29.2941 32.762 29.5161 32.636 29.6601 32.48C29.8161 32.312 29.8941 32.096 29.8941 31.832V12.968C29.8941 12.704 29.8161 12.494 29.6601 12.338C29.5161 12.17 29.2941 12.038 28.9941 11.942L28.0941 11.708C27.5781 11.528 27.3201 11.192 27.3201 10.7C27.3201 10.424 27.4161 10.208 27.6081 10.052C27.8001 9.884 28.0941 9.8 28.4901 9.8H38.1741C38.5701 9.8 38.8581 9.884 39.0381 10.052C39.2301 10.208 39.3261 10.424 39.3261 10.7C39.3261 11.192 39.0741 11.528 38.5701 11.708L37.6701 11.942C37.3701 12.038 37.1421 12.17 36.9861 12.338C36.8421 12.494 36.7701 12.704 36.7701 12.968V31.832ZM59.1002 26.882L57.1022 27.404L63.0422 11.654C63.3062 10.946 63.6062 10.46 63.9422 10.196C64.2902 9.932 64.7702 9.8 65.3822 9.8H71.6102C72.0062 9.8 72.3002 9.884 72.4922 10.052C72.6842 10.208 72.7802 10.424 72.7802 10.7C72.7802 10.952 72.7142 11.162 72.5822 11.33C72.4622 11.486 72.2762 11.612 72.0242 11.708L71.1602 11.942C70.7882 12.062 70.5362 12.224 70.4042 12.428C70.2722 12.632 70.2182 12.95 70.2422 13.382L71.5382 31.58C71.5622 32 71.6402 32.294 71.7722 32.462C71.9042 32.63 72.1322 32.762 72.4562 32.858L73.3022 33.092C73.5422 33.176 73.7222 33.296 73.8422 33.452C73.9622 33.608 74.0222 33.806 74.0222 34.046C74.0222 34.322 73.9262 34.55 73.7342 34.73C73.5422 34.91 73.2422 35 72.8342 35H63.3482C62.9402 35 62.6402 34.916 62.4482 34.748C62.2562 34.58 62.1602 34.364 62.1602 34.1C62.1602 33.86 62.2142 33.656 62.3222 33.488C62.4422 33.32 62.6462 33.188 62.9342 33.092L63.7982 32.858C64.1702 32.738 64.4222 32.588 64.5542 32.408C64.6862 32.228 64.7402 31.952 64.7162 31.58L63.2942 12.878L65.0942 12.68L57.6962 32.534C57.4442 33.218 57.1862 33.656 56.9222 33.848C56.6702 34.028 56.3642 34.118 56.0042 34.118C55.7402 34.118 55.5002 34.088 55.2842 34.028C55.0802 33.956 54.8822 33.806 54.6902 33.578C54.4982 33.338 54.3002 32.96 54.0962 32.444L46.4822 13.274L48.2102 12.77L46.7342 30.86C46.6862 31.412 46.8122 31.844 47.1122 32.156C47.4122 32.456 47.8022 32.714 48.2822 32.93L49.0022 33.218C49.1822 33.302 49.3202 33.41 49.4162 33.542C49.5242 33.674 49.5782 33.848 49.5782 34.064C49.5782 34.34 49.4822 34.568 49.2902 34.748C49.1102 34.916 48.8162 35 48.4082 35H42.7382C42.3422 35 42.0482 34.916 41.8562 34.748C41.6642 34.58 41.5682 34.364 41.5682 34.1C41.5682 33.812 41.6462 33.596 41.8022 33.452C41.9582 33.308 42.1622 33.176 42.4142 33.056L42.9902 32.858C43.4102 32.69 43.7582 32.45 44.0342 32.138C44.3222 31.826 44.4902 31.394 44.5382 30.842L45.9062 14.12C45.9662 13.448 45.9242 12.95 45.7802 12.626C45.6362 12.29 45.3722 12.062 44.9882 11.942L44.1602 11.708C43.8842 11.624 43.6802 11.504 43.5482 11.348C43.4162 11.18 43.3502 10.97 43.3502 10.718C43.3502 10.106 43.7462 9.8 44.5382 9.8H50.7482C51.3122 9.8 51.7622 9.92 52.0982 10.16C52.4462 10.388 52.7582 10.862 53.0342 11.582L59.1002 26.882ZM83.5417 21.248H88.5997C89.3917 21.248 89.9557 21.092 90.2917 20.78C90.6397 20.456 90.9157 19.844 91.1197 18.944C91.2037 18.632 91.3297 18.404 91.4977 18.26C91.6657 18.116 91.8637 18.044 92.0917 18.044C92.5837 18.032 92.8957 18.302 93.0277 18.854L94.5037 24.524C94.5877 24.86 94.5817 25.13 94.4857 25.334C94.4017 25.526 94.2277 25.67 93.9637 25.766C93.7117 25.85 93.4717 25.862 93.2437 25.802C93.0277 25.73 92.8417 25.574 92.6857 25.334C92.2897 24.746 91.9297 24.296 91.6057 23.984C91.2817 23.672 90.9217 23.456 90.5257 23.336C90.1417 23.216 89.6497 23.156 89.0497 23.156H83.5417V21.248ZM76.5217 10.7C76.5217 10.424 76.6117 10.208 76.7917 10.052C76.9837 9.884 77.2777 9.8 77.6737 9.8H91.6417C92.1097 9.8 92.4937 9.746 92.7937 9.638C93.1057 9.53 93.3937 9.422 93.6577 9.314C93.9337 9.206 94.2337 9.152 94.5577 9.152C94.9537 9.152 95.2537 9.266 95.4577 9.494C95.6617 9.722 95.8417 10.094 95.9977 10.61L97.5097 15.938C97.6057 16.262 97.5997 16.532 97.4917 16.748C97.3957 16.964 97.2097 17.12 96.9337 17.216C96.6097 17.336 96.3157 17.336 96.0517 17.216C95.7997 17.096 95.5897 16.88 95.4217 16.568C94.8697 15.56 94.3597 14.744 93.8917 14.12C93.4357 13.484 92.9797 12.998 92.5237 12.662C92.0677 12.314 91.5877 12.074 91.0837 11.942C90.5917 11.81 90.0337 11.744 89.4097 11.744H85.9537V31.22C85.9537 31.832 86.1157 32.294 86.4397 32.606C86.7757 32.906 87.2557 33.056 87.8797 33.056H89.8957C90.7477 33.056 91.5037 32.906 92.1637 32.606C92.8237 32.306 93.4717 31.742 94.1077 30.914C94.7437 30.086 95.4457 28.88 96.2137 27.296C96.3457 26.996 96.5257 26.798 96.7537 26.702C96.9817 26.594 97.2397 26.564 97.5277 26.612C97.8397 26.672 98.0677 26.816 98.2117 27.044C98.3557 27.272 98.3737 27.566 98.2657 27.926L96.6097 34.154C96.4657 34.658 96.2857 35.03 96.0697 35.27C95.8657 35.51 95.5477 35.63 95.1157 35.63C94.8277 35.63 94.5517 35.576 94.2877 35.468C94.0237 35.36 93.7297 35.252 93.4057 35.144C93.0937 35.048 92.7097 35 92.2537 35H77.6737C77.2777 35 76.9837 34.916 76.7917 34.748C76.6117 34.58 76.5217 34.364 76.5217 34.1C76.5217 33.608 76.7737 33.272 77.2777 33.092L78.1957 32.858C78.4837 32.762 78.6997 32.636 78.8437 32.48C78.9997 32.312 79.0777 32.096 79.0777 31.832V12.968C79.0777 12.704 78.9997 12.494 78.8437 12.338C78.6997 12.17 78.4837 12.038 78.1957 11.942L77.2777 11.708C76.7737 11.528 76.5217 11.192 76.5217 10.7Z" fill="#A8DADC" fill-opacity="0.266667"/>
</svg>
